<?xml version="1.0" encoding="utf-8" standalone="no"?>
<!DOCTYPE svg PUBLIC "-//W3C//DTD SVG 1.1//EN"
  "http://www.w3.org/Graphics/SVG/1.1/DTD/svg11.dtd">
<svg xmlns:xlink="http://www.w3.org/1999/xlink" width="288pt" height="432pt" viewBox="0 0 288 432" xmlns="http://www.w3.org/2000/svg" version="1.1">
 <metadata>
  <rdf:RDF xmlns:dc="http://purl.org/dc/elements/1.1/" xmlns:cc="http://creativecommons.org/ns#" xmlns:rdf="http://www.w3.org/1999/02/22-rdf-syntax-ns#">
   <cc:Work>
    <dc:type rdf:resource="http://purl.org/dc/dcmitype/StillImage"/>
    <dc:date>2025-09-12T01:27:50.161093</dc:date>
    <dc:format>image/svg+xml</dc:format>
    <dc:creator>
     <cc:Agent>
      <dc:title>Matplotlib v3.10.3, https://matplotlib.org/</dc:title>
     </cc:Agent>
    </dc:creator>
   </cc:Work>
  </rdf:RDF>
 </metadata>
 <defs>
  <style type="text/css">*{stroke-linejoin: round; stroke-linecap: butt}</style>
 </defs>
 <g id="figure_1">
  <g id="patch_1">
   <path d="M 0 432 
L 288 432 
L 288 0 
L 0 0 
z
" style="fill: #ffffff"/>
  </g>
  <g id="axes_1">
   <g id="patch_2">
    <path d="M 57.44 201.31 
L 277.2 201.31 
L 277.2 26.88 
L 57.44 26.88 
z
" style="fill: #ffffff"/>
   </g>
   <g id="matplotlib.axis_1">
    <g id="xtick_1">
     <g id="line2d_1">
      <path d="M 61.666154 201.31 
L 61.666154 26.88 
" clip-path="url(#p46193ce8e7)" style="fill: none; stroke: #b0b0b0; stroke-width: 0.8; stroke-linecap: square"/>
     </g>
     <g id="line2d_2">
      <defs>
       <path id="m7f1592e208" d="M 0 0 
L 0 3.5 
" style="stroke: #000000; stroke-width: 0.8"/>
      </defs>
      <g>
       <use xlink:href="#m7f1592e208" x="61.666154" y="201.31" style="stroke: #000000; stroke-width: 0.8"/>
      </g>
     </g>
    </g>
    <g id="xtick_2">
     <g id="line2d_3">
      <path d="M 103.927692 201.31 
L 103.927692 26.88 
" clip-path="url(#p46193ce8e7)" style="fill: none; stroke: #b0b0b0; stroke-width: 0.8; stroke-linecap: square"/>
     </g>
     <g id="line2d_4">
      <g>
       <use xlink:href="#m7f1592e208" x="103.927692" y="201.31" style="stroke: #000000; stroke-width: 0.8"/>
      </g>
     </g>
    </g>
    <g id="xtick_3">
     <g id="line2d_5">
      <path d="M 146.189231 201.31 
L 146.189231 26.88 
" clip-path="url(#p46193ce8e7)" style="fill: none; stroke: #b0b0b0; stroke-width: 0.8; stroke-linecap: square"/>
     </g>
     <g id="line2d_6">
      <g>
       <use xlink:href="#m7f1592e208" x="146.189231" y="201.31" style="stroke: #000000; stroke-width: 0.8"/>
      </g>
     </g>
    </g>
    <g id="xtick_4">
     <g id="line2d_7">
      <path d="M 188.450769 201.31 
L 188.450769 26.88 
" clip-path="url(#p46193ce8e7)" style="fill: none; stroke: #b0b0b0; stroke-width: 0.8; stroke-linecap: square"/>
     </g>
     <g id="line2d_8">
      <g>
       <use xlink:href="#m7f1592e208" x="188.450769" y="201.31" style="stroke: #000000; stroke-width: 0.8"/>
      </g>
     </g>
    </g>
    <g id="xtick_5">
     <g id="line2d_9">
      <path d="M 230.712308 201.31 
L 230.712308 26.88 
" clip-path="url(#p46193ce8e7)" style="fill: none; stroke: #b0b0b0; stroke-width: 0.8; stroke-linecap: square"/>
     </g>
     <g id="line2d_10">
      <g>
       <use xlink:href="#m7f1592e208" x="230.712308" y="201.31" style="stroke: #000000; stroke-width: 0.8"/>
      </g>
     </g>
    </g>
    <g id="xtick_6">
     <g id="line2d_11">
      <path d="M 272.973846 201.31 
L 272.973846 26.88 
" clip-path="url(#p46193ce8e7)" style="fill: none; stroke: #b0b0b0; stroke-width: 0.8; stroke-linecap: square"/>
     </g>
     <g id="line2d_12">
      <g>
       <use xlink:href="#m7f1592e208" x="272.973846" y="201.31" style="stroke: #000000; stroke-width: 0.8"/>
      </g>
     </g>
    </g>
   </g>
   <g id="matplotlib.axis_2">
    <g id="ytick_1">
     <g id="line2d_13">
      <path d="M 57.44 193.381364 
L 277.2 193.381364 
" clip-path="url(#p46193ce8e7)" style="fill: none; stroke: #b0b0b0; stroke-width: 0.8; stroke-linecap: square"/>
     </g>
     <g id="line2d_14">
      <defs>
       <path id="m11f74aacfa" d="M 0 0 
L -3.5 0 
" style="stroke: #000000; stroke-width: 0.8"/>
      </defs>
      <g>
       <use xlink:href="#m11f74aacfa" x="57.44" y="193.381364" style="stroke: #000000; stroke-width: 0.8"/>
      </g>
     </g>
     <g id="text_1">
      <!-- 0 -->
      <g transform="translate(44.0775 197.180582) scale(0.1 -0.1)">
       <defs>
        <path id="DejaVuSans-30" d="M 2034 4250 
Q 1547 4250 1301 3770 
Q 1056 3291 1056 2328 
Q 1056 1369 1301 889 
Q 1547 409 2034 409 
Q 2525 409 2770 889 
Q 3016 1369 3016 2328 
Q 3016 3291 2770 3770 
Q 2525 4250 2034 4250 
z
M 2034 4750 
Q 2819 4750 3233 4129 
Q 3647 3509 3647 2328 
Q 3647 1150 3233 529 
Q 2819 -91 2034 -91 
Q 1250 -91 836 529 
Q 422 1150 422 2328 
Q 422 3509 836 4129 
Q 1250 4750 2034 4750 
z
" transform="scale(0.015625)"/>
       </defs>
       <use xlink:href="#DejaVuSans-30"/>
      </g>
     </g>
    </g>
    <g id="ytick_2">
     <g id="line2d_15">
      <path d="M 57.44 164.103052 
L 277.2 164.103052 
" clip-path="url(#p46193ce8e7)" style="fill: none; stroke: #b0b0b0; stroke-width: 0.8; stroke-linecap: square"/>
     </g>
     <g id="line2d_16">
      <g>
       <use xlink:href="#m11f74aacfa" x="57.44" y="164.103052" style="stroke: #000000; stroke-width: 0.8"/>
      </g>
     </g>
     <g id="text_2">
      <!-- 2 -->
      <g transform="translate(44.0775 167.902271) scale(0.1 -0.1)">
       <defs>
        <path id="DejaVuSans-32" d="M 1228 531 
L 3431 531 
L 3431 0 
L 469 0 
L 469 531 
Q 828 903 1448 1529 
Q 2069 2156 2228 2338 
Q 2531 2678 2651 2914 
Q 2772 3150 2772 3378 
Q 2772 3750 2511 3984 
Q 2250 4219 1831 4219 
Q 1534 4219 1204 4116 
Q 875 4013 500 3803 
L 500 4441 
Q 881 4594 1212 4672 
Q 1544 4750 1819 4750 
Q 2544 4750 2975 4387 
Q 3406 4025 3406 3419 
Q 3406 3131 3298 2873 
Q 3191 2616 2906 2266 
Q 2828 2175 2409 1742 
Q 1991 1309 1228 531 
z
" transform="scale(0.015625)"/>
       </defs>
       <use xlink:href="#DejaVuSans-32"/>
      </g>
     </g>
    </g>
    <g id="ytick_3">
     <g id="line2d_17">
      <path d="M 57.44 134.824741 
L 277.2 134.824741 
" clip-path="url(#p46193ce8e7)" style="fill: none; stroke: #b0b0b0; stroke-width: 0.8; stroke-linecap: square"/>
     </g>
     <g id="line2d_18">
      <g>
       <use xlink:href="#m11f74aacfa" x="57.44" y="134.824741" style="stroke: #000000; stroke-width: 0.8"/>
      </g>
     </g>
     <g id="text_3">
      <!-- 4 -->
      <g transform="translate(44.0775 138.623959) scale(0.1 -0.1)">
       <defs>
        <path id="DejaVuSans-34" d="M 2419 4116 
L 825 1625 
L 2419 1625 
L 2419 4116 
z
M 2253 4666 
L 3047 4666 
L 3047 1625 
L 3713 1625 
L 3713 1100 
L 3047 1100 
L 3047 0 
L 2419 0 
L 2419 1100 
L 313 1100 
L 313 1709 
L 2253 4666 
z
" transform="scale(0.015625)"/>
       </defs>
       <use xlink:href="#DejaVuSans-34"/>
      </g>
     </g>
    </g>
    <g id="ytick_4">
     <g id="line2d_19">
      <path d="M 57.44 105.546429 
L 277.2 105.546429 
" clip-path="url(#p46193ce8e7)" style="fill: none; stroke: #b0b0b0; stroke-width: 0.8; stroke-linecap: square"/>
     </g>
     <g id="line2d_20">
      <g>
       <use xlink:href="#m11f74aacfa" x="57.44" y="105.546429" style="stroke: #000000; stroke-width: 0.8"/>
      </g>
     </g>
     <g id="text_4">
      <!-- 6 -->
      <g transform="translate(44.0775 109.345648) scale(0.1 -0.1)">
       <defs>
        <path id="DejaVuSans-36" d="M 2113 2584 
Q 1688 2584 1439 2293 
Q 1191 2003 1191 1497 
Q 1191 994 1439 701 
Q 1688 409 2113 409 
Q 2538 409 2786 701 
Q 3034 994 3034 1497 
Q 3034 2003 2786 2293 
Q 2538 2584 2113 2584 
z
M 3366 4563 
L 3366 3988 
Q 3128 4100 2886 4159 
Q 2644 4219 2406 4219 
Q 1781 4219 1451 3797 
Q 1122 3375 1075 2522 
Q 1259 2794 1537 2939 
Q 1816 3084 2150 3084 
Q 2853 3084 3261 2657 
Q 3669 2231 3669 1497 
Q 3669 778 3244 343 
Q 2819 -91 2113 -91 
Q 1303 -91 875 529 
Q 447 1150 447 2328 
Q 447 3434 972 4092 
Q 1497 4750 2381 4750 
Q 2619 4750 2861 4703 
Q 3103 4656 3366 4563 
z
" transform="scale(0.015625)"/>
       </defs>
       <use xlink:href="#DejaVuSans-36"/>
      </g>
     </g>
    </g>
    <g id="ytick_5">
     <g id="line2d_21">
      <path d="M 57.44 76.268118 
L 277.2 76.268118 
" clip-path="url(#p46193ce8e7)" style="fill: none; stroke: #b0b0b0; stroke-width: 0.8; stroke-linecap: square"/>
     </g>
     <g id="line2d_22">
      <g>
       <use xlink:href="#m11f74aacfa" x="57.44" y="76.268118" style="stroke: #000000; stroke-width: 0.8"/>
      </g>
     </g>
     <g id="text_5">
      <!-- 8 -->
      <g transform="translate(44.0775 80.067336) scale(0.1 -0.1)">
       <defs>
        <path id="DejaVuSans-38" d="M 2034 2216 
Q 1584 2216 1326 1975 
Q 1069 1734 1069 1313 
Q 1069 891 1326 650 
Q 1584 409 2034 409 
Q 2484 409 2743 651 
Q 3003 894 3003 1313 
Q 3003 1734 2745 1975 
Q 2488 2216 2034 2216 
z
M 1403 2484 
Q 997 2584 770 2862 
Q 544 3141 544 3541 
Q 544 4100 942 4425 
Q 1341 4750 2034 4750 
Q 2731 4750 3128 4425 
Q 3525 4100 3525 3541 
Q 3525 3141 3298 2862 
Q 3072 2584 2669 2484 
Q 3125 2378 3379 2068 
Q 3634 1759 3634 1313 
Q 3634 634 3220 271 
Q 2806 -91 2034 -91 
Q 1263 -91 848 271 
Q 434 634 434 1313 
Q 434 1759 690 2068 
Q 947 2378 1403 2484 
z
M 1172 3481 
Q 1172 3119 1398 2916 
Q 1625 2713 2034 2713 
Q 2441 2713 2670 2916 
Q 2900 3119 2900 3481 
Q 2900 3844 2670 4047 
Q 2441 4250 2034 4250 
Q 1625 4250 1398 4047 
Q 1172 3844 1172 3481 
z
" transform="scale(0.015625)"/>
       </defs>
       <use xlink:href="#DejaVuSans-38"/>
      </g>
     </g>
    </g>
    <g id="ytick_6">
     <g id="line2d_23">
      <path d="M 57.44 46.989806 
L 277.2 46.989806 
" clip-path="url(#p46193ce8e7)" style="fill: none; stroke: #b0b0b0; stroke-width: 0.8; stroke-linecap: square"/>
     </g>
     <g id="line2d_24">
      <g>
       <use xlink:href="#m11f74aacfa" x="57.44" y="46.989806" style="stroke: #000000; stroke-width: 0.8"/>
      </g>
     </g>
     <g id="text_6">
      <!-- 10 -->
      <g transform="translate(37.715 50.789025) scale(0.1 -0.1)">
       <defs>
        <path id="DejaVuSans-31" d="M 794 531 
L 1825 531 
L 1825 4091 
L 703 3866 
L 703 4441 
L 1819 4666 
L 2450 4666 
L 2450 531 
L 3481 531 
L 3481 0 
L 794 0 
L 794 531 
z
" transform="scale(0.015625)"/>
       </defs>
       <use xlink:href="#DejaVuSans-31"/>
       <use xlink:href="#DejaVuSans-30" transform="translate(63.623047 0)"/>
      </g>
     </g>
    </g>
    <g id="text_7">
     <!-- Radial distribution function $ P(r) = 4 \pi r^2 \rho(r) $ -->
     <g transform="translate(20.057187 218.445) rotate(-90) scale(0.1 -0.1)">
      <defs>
       <path id="DejaVuSans-52" d="M 2841 2188 
Q 3044 2119 3236 1894 
Q 3428 1669 3622 1275 
L 4263 0 
L 3584 0 
L 2988 1197 
Q 2756 1666 2539 1819 
Q 2322 1972 1947 1972 
L 1259 1972 
L 1259 0 
L 628 0 
L 628 4666 
L 2053 4666 
Q 2853 4666 3247 4331 
Q 3641 3997 3641 3322 
Q 3641 2881 3436 2590 
Q 3231 2300 2841 2188 
z
M 1259 4147 
L 1259 2491 
L 2053 2491 
Q 2509 2491 2742 2702 
Q 2975 2913 2975 3322 
Q 2975 3731 2742 3939 
Q 2509 4147 2053 4147 
L 1259 4147 
z
" transform="scale(0.015625)"/>
       <path id="DejaVuSans-61" d="M 2194 1759 
Q 1497 1759 1228 1600 
Q 959 1441 959 1056 
Q 959 750 1161 570 
Q 1363 391 1709 391 
Q 2188 391 2477 730 
Q 2766 1069 2766 1631 
L 2766 1759 
L 2194 1759 
z
M 3341 1997 
L 3341 0 
L 2766 0 
L 2766 531 
Q 2569 213 2275 61 
Q 1981 -91 1556 -91 
Q 1019 -91 701 211 
Q 384 513 384 1019 
Q 384 1609 779 1909 
Q 1175 2209 1959 2209 
L 2766 2209 
L 2766 2266 
Q 2766 2663 2505 2880 
Q 2244 3097 1772 3097 
Q 1472 3097 1187 3025 
Q 903 2953 641 2809 
L 641 3341 
Q 956 3463 1253 3523 
Q 1550 3584 1831 3584 
Q 2591 3584 2966 3190 
Q 3341 2797 3341 1997 
z
" transform="scale(0.015625)"/>
       <path id="DejaVuSans-64" d="M 2906 2969 
L 2906 4863 
L 3481 4863 
L 3481 0 
L 2906 0 
L 2906 525 
Q 2725 213 2448 61 
Q 2172 -91 1784 -91 
Q 1150 -91 751 415 
Q 353 922 353 1747 
Q 353 2572 751 3078 
Q 1150 3584 1784 3584 
Q 2172 3584 2448 3432 
Q 2725 3281 2906 2969 
z
M 947 1747 
Q 947 1113 1208 752 
Q 1469 391 1925 391 
Q 2381 391 2643 752 
Q 2906 1113 2906 1747 
Q 2906 2381 2643 2742 
Q 2381 3103 1925 3103 
Q 1469 3103 1208 2742 
Q 947 2381 947 1747 
z
" transform="scale(0.015625)"/>
       <path id="DejaVuSans-69" d="M 603 3500 
L 1178 3500 
L 1178 0 
L 603 0 
L 603 3500 
z
M 603 4863 
L 1178 4863 
L 1178 4134 
L 603 4134 
L 603 4863 
z
" transform="scale(0.015625)"/>
       <path id="DejaVuSans-6c" d="M 603 4863 
L 1178 4863 
L 1178 0 
L 603 0 
L 603 4863 
z
" transform="scale(0.015625)"/>
       <path id="DejaVuSans-20" transform="scale(0.015625)"/>
       <path id="DejaVuSans-73" d="M 2834 3397 
L 2834 2853 
Q 2591 2978 2328 3040 
Q 2066 3103 1784 3103 
Q 1356 3103 1142 2972 
Q 928 2841 928 2578 
Q 928 2378 1081 2264 
Q 1234 2150 1697 2047 
L 1894 2003 
Q 2506 1872 2764 1633 
Q 3022 1394 3022 966 
Q 3022 478 2636 193 
Q 2250 -91 1575 -91 
Q 1294 -91 989 -36 
Q 684 19 347 128 
L 347 722 
Q 666 556 975 473 
Q 1284 391 1588 391 
Q 1994 391 2212 530 
Q 2431 669 2431 922 
Q 2431 1156 2273 1281 
Q 2116 1406 1581 1522 
L 1381 1569 
Q 847 1681 609 1914 
Q 372 2147 372 2553 
Q 372 3047 722 3315 
Q 1072 3584 1716 3584 
Q 2034 3584 2315 3537 
Q 2597 3491 2834 3397 
z
" transform="scale(0.015625)"/>
       <path id="DejaVuSans-74" d="M 1172 4494 
L 1172 3500 
L 2356 3500 
L 2356 3053 
L 1172 3053 
L 1172 1153 
Q 1172 725 1289 603 
Q 1406 481 1766 481 
L 2356 481 
L 2356 0 
L 1766 0 
Q 1100 0 847 248 
Q 594 497 594 1153 
L 594 3053 
L 172 3053 
L 172 3500 
L 594 3500 
L 594 4494 
L 1172 4494 
z
" transform="scale(0.015625)"/>
       <path id="DejaVuSans-72" d="M 2631 2963 
Q 2534 3019 2420 3045 
Q 2306 3072 2169 3072 
Q 1681 3072 1420 2755 
Q 1159 2438 1159 1844 
L 1159 0 
L 581 0 
L 581 3500 
L 1159 3500 
L 1159 2956 
Q 1341 3275 1631 3429 
Q 1922 3584 2338 3584 
Q 2397 3584 2469 3576 
Q 2541 3569 2628 3553 
L 2631 2963 
z
" transform="scale(0.015625)"/>
       <path id="DejaVuSans-62" d="M 3116 1747 
Q 3116 2381 2855 2742 
Q 2594 3103 2138 3103 
Q 1681 3103 1420 2742 
Q 1159 2381 1159 1747 
Q 1159 1113 1420 752 
Q 1681 391 2138 391 
Q 2594 391 2855 752 
Q 3116 1113 3116 1747 
z
M 1159 2969 
Q 1341 3281 1617 3432 
Q 1894 3584 2278 3584 
Q 2916 3584 3314 3078 
Q 3713 2572 3713 1747 
Q 3713 922 3314 415 
Q 2916 -91 2278 -91 
Q 1894 -91 1617 61 
Q 1341 213 1159 525 
L 1159 0 
L 581 0 
L 581 4863 
L 1159 4863 
L 1159 2969 
z
" transform="scale(0.015625)"/>
       <path id="DejaVuSans-75" d="M 544 1381 
L 544 3500 
L 1119 3500 
L 1119 1403 
Q 1119 906 1312 657 
Q 1506 409 1894 409 
Q 2359 409 2629 706 
Q 2900 1003 2900 1516 
L 2900 3500 
L 3475 3500 
L 3475 0 
L 2900 0 
L 2900 538 
Q 2691 219 2414 64 
Q 2138 -91 1772 -91 
Q 1169 -91 856 284 
Q 544 659 544 1381 
z
M 1991 3584 
L 1991 3584 
z
" transform="scale(0.015625)"/>
       <path id="DejaVuSans-6f" d="M 1959 3097 
Q 1497 3097 1228 2736 
Q 959 2375 959 1747 
Q 959 1119 1226 758 
Q 1494 397 1959 397 
Q 2419 397 2687 759 
Q 2956 1122 2956 1747 
Q 2956 2369 2687 2733 
Q 2419 3097 1959 3097 
z
M 1959 3584 
Q 2709 3584 3137 3096 
Q 3566 2609 3566 1747 
Q 3566 888 3137 398 
Q 2709 -91 1959 -91 
Q 1206 -91 779 398 
Q 353 888 353 1747 
Q 353 2609 779 3096 
Q 1206 3584 1959 3584 
z
" transform="scale(0.015625)"/>
       <path id="DejaVuSans-6e" d="M 3513 2113 
L 3513 0 
L 2938 0 
L 2938 2094 
Q 2938 2591 2744 2837 
Q 2550 3084 2163 3084 
Q 1697 3084 1428 2787 
Q 1159 2491 1159 1978 
L 1159 0 
L 581 0 
L 581 3500 
L 1159 3500 
L 1159 2956 
Q 1366 3272 1645 3428 
Q 1925 3584 2291 3584 
Q 2894 3584 3203 3211 
Q 3513 2838 3513 2113 
z
" transform="scale(0.015625)"/>
       <path id="DejaVuSans-66" d="M 2375 4863 
L 2375 4384 
L 1825 4384 
Q 1516 4384 1395 4259 
Q 1275 4134 1275 3809 
L 1275 3500 
L 2222 3500 
L 2222 3053 
L 1275 3053 
L 1275 0 
L 697 0 
L 697 3053 
L 147 3053 
L 147 3500 
L 697 3500 
L 697 3744 
Q 697 4328 969 4595 
Q 1241 4863 1831 4863 
L 2375 4863 
z
" transform="scale(0.015625)"/>
       <path id="DejaVuSans-63" d="M 3122 3366 
L 3122 2828 
Q 2878 2963 2633 3030 
Q 2388 3097 2138 3097 
Q 1578 3097 1268 2742 
Q 959 2388 959 1747 
Q 959 1106 1268 751 
Q 1578 397 2138 397 
Q 2388 397 2633 464 
Q 2878 531 3122 666 
L 3122 134 
Q 2881 22 2623 -34 
Q 2366 -91 2075 -91 
Q 1284 -91 818 406 
Q 353 903 353 1747 
Q 353 2603 823 3093 
Q 1294 3584 2113 3584 
Q 2378 3584 2631 3529 
Q 2884 3475 3122 3366 
z
" transform="scale(0.015625)"/>
       <path id="DejaVuSans-Oblique-50" d="M 1081 4666 
L 2541 4666 
Q 3178 4666 3512 4369 
Q 3847 4072 3847 3500 
Q 3847 2731 3353 2303 
Q 2859 1875 1966 1875 
L 1172 1875 
L 806 0 
L 172 0 
L 1081 4666 
z
M 1613 4147 
L 1275 2394 
L 2069 2394 
Q 2606 2394 2893 2669 
Q 3181 2944 3181 3456 
Q 3181 3784 2986 3965 
Q 2791 4147 2438 4147 
L 1613 4147 
z
" transform="scale(0.015625)"/>
       <path id="DejaVuSans-28" d="M 1984 4856 
Q 1566 4138 1362 3434 
Q 1159 2731 1159 2009 
Q 1159 1288 1364 580 
Q 1569 -128 1984 -844 
L 1484 -844 
Q 1016 -109 783 600 
Q 550 1309 550 2009 
Q 550 2706 781 3412 
Q 1013 4119 1484 4856 
L 1984 4856 
z
" transform="scale(0.015625)"/>
       <path id="DejaVuSans-Oblique-72" d="M 2853 2969 
Q 2766 3016 2653 3041 
Q 2541 3066 2413 3066 
Q 1953 3066 1609 2717 
Q 1266 2369 1153 1784 
L 800 0 
L 225 0 
L 909 3500 
L 1484 3500 
L 1375 2956 
Q 1603 3259 1920 3421 
Q 2238 3584 2597 3584 
Q 2691 3584 2781 3573 
Q 2872 3563 2963 3538 
L 2853 2969 
z
" transform="scale(0.015625)"/>
       <path id="DejaVuSans-29" d="M 513 4856 
L 1013 4856 
Q 1481 4119 1714 3412 
Q 1947 2706 1947 2009 
Q 1947 1309 1714 600 
Q 1481 -109 1013 -844 
L 513 -844 
Q 928 -128 1133 580 
Q 1338 1288 1338 2009 
Q 1338 2731 1133 3434 
Q 928 4138 513 4856 
z
" transform="scale(0.015625)"/>
       <path id="DejaVuSans-3d" d="M 678 2906 
L 4684 2906 
L 4684 2381 
L 678 2381 
L 678 2906 
z
M 678 1631 
L 4684 1631 
L 4684 1100 
L 678 1100 
L 678 1631 
z
" transform="scale(0.015625)"/>
       <path id="DejaVuSans-Oblique-3c0" d="M 584 3500 
L 3938 3500 
L 3825 2925 
L 3384 2925 
L 2966 775 
Q 2922 550 2981 450 
Q 3038 353 3209 353 
Q 3256 353 3325 363 
Q 3397 369 3419 372 
L 3338 -44 
Q 3222 -84 3103 -103 
Q 2981 -122 2866 -122 
Q 2491 -122 2388 81 
Q 2284 288 2391 838 
L 2797 2925 
L 1506 2925 
L 938 0 
L 350 0 
L 919 2925 
L 472 2925 
L 584 3500 
z
" transform="scale(0.015625)"/>
       <path id="DejaVuSans-Oblique-3c1" d="M 1203 2875 
Q 1453 3194 1981 3475 
Q 2188 3584 2756 3584 
Q 3394 3584 3694 3078 
Q 3994 2572 3834 1747 
Q 3672 922 3175 415 
Q 2678 -91 2041 -91 
Q 1656 -91 1409 63 
Q 1163 213 1044 525 
L 681 -1331 
L 103 -1331 
L 697 1716 
Q 838 2438 1203 2875 
z
M 3238 1747 
Q 3359 2381 3169 2744 
Q 2978 3103 2522 3103 
Q 2066 3103 1734 2744 
Q 1403 2381 1281 1747 
Q 1156 1113 1347 750 
Q 1538 391 1994 391 
Q 2450 391 2781 750 
Q 3113 1113 3238 1747 
z
" transform="scale(0.015625)"/>
      </defs>
      <use xlink:href="#DejaVuSans-52" transform="translate(0 0.765625)"/>
      <use xlink:href="#DejaVuSans-61" transform="translate(69.482422 0.765625)"/>
      <use xlink:href="#DejaVuSans-64" transform="translate(130.761719 0.765625)"/>
      <use xlink:href="#DejaVuSans-69" transform="translate(194.238281 0.765625)"/>
      <use xlink:href="#DejaVuSans-61" transform="translate(222.021484 0.765625)"/>
      <use xlink:href="#DejaVuSans-6c" transform="translate(283.300781 0.765625)"/>
      <use xlink:href="#DejaVuSans-20" transform="translate(311.083984 0.765625)"/>
      <use xlink:href="#DejaVuSans-64" transform="translate(342.871094 0.765625)"/>
      <use xlink:href="#DejaVuSans-69" transform="translate(406.347656 0.765625)"/>
      <use xlink:href="#DejaVuSans-73" transform="translate(434.130859 0.765625)"/>
      <use xlink:href="#DejaVuSans-74" transform="translate(486.230469 0.765625)"/>
      <use xlink:href="#DejaVuSans-72" transform="translate(525.439453 0.765625)"/>
      <use xlink:href="#DejaVuSans-69" transform="translate(566.552734 0.765625)"/>
      <use xlink:href="#DejaVuSans-62" transform="translate(594.335938 0.765625)"/>
      <use xlink:href="#DejaVuSans-75" transform="translate(657.8125 0.765625)"/>
      <use xlink:href="#DejaVuSans-74" transform="translate(721.191406 0.765625)"/>
      <use xlink:href="#DejaVuSans-69" transform="translate(760.400391 0.765625)"/>
      <use xlink:href="#DejaVuSans-6f" transform="translate(788.183594 0.765625)"/>
      <use xlink:href="#DejaVuSans-6e" transform="translate(849.365234 0.765625)"/>
      <use xlink:href="#DejaVuSans-20" transform="translate(912.744141 0.765625)"/>
      <use xlink:href="#DejaVuSans-66" transform="translate(944.53125 0.765625)"/>
      <use xlink:href="#DejaVuSans-75" transform="translate(979.736328 0.765625)"/>
      <use xlink:href="#DejaVuSans-6e" transform="translate(1043.115234 0.765625)"/>
      <use xlink:href="#DejaVuSans-63" transform="translate(1106.494141 0.765625)"/>
      <use xlink:href="#DejaVuSans-74" transform="translate(1161.474609 0.765625)"/>
      <use xlink:href="#DejaVuSans-69" transform="translate(1200.683594 0.765625)"/>
      <use xlink:href="#DejaVuSans-6f" transform="translate(1228.466797 0.765625)"/>
      <use xlink:href="#DejaVuSans-6e" transform="translate(1289.648438 0.765625)"/>
      <use xlink:href="#DejaVuSans-20" transform="translate(1353.027344 0.765625)"/>
      <use xlink:href="#DejaVuSans-Oblique-50" transform="translate(1384.814453 0.765625)"/>
      <use xlink:href="#DejaVuSans-28" transform="translate(1445.117188 0.765625)"/>
      <use xlink:href="#DejaVuSans-Oblique-72" transform="translate(1484.130859 0.765625)"/>
      <use xlink:href="#DejaVuSans-29" transform="translate(1525.244141 0.765625)"/>
      <use xlink:href="#DejaVuSans-3d" transform="translate(1583.740234 0.765625)"/>
      <use xlink:href="#DejaVuSans-34" transform="translate(1687.011719 0.765625)"/>
      <use xlink:href="#DejaVuSans-Oblique-3c0" transform="translate(1750.634766 0.765625)"/>
      <use xlink:href="#DejaVuSans-Oblique-72" transform="translate(1810.839844 0.765625)"/>
      <use xlink:href="#DejaVuSans-32" transform="translate(1856.603021 39.046875) scale(0.7)"/>
      <use xlink:href="#DejaVuSans-Oblique-3c1" transform="translate(1903.873529 0.765625)"/>
      <use xlink:href="#DejaVuSans-28" transform="translate(1967.350091 0.765625)"/>
      <use xlink:href="#DejaVuSans-Oblique-72" transform="translate(2006.363763 0.765625)"/>
      <use xlink:href="#DejaVuSans-29" transform="translate(2047.477044 0.765625)"/>
     </g>
    </g>
   </g>
   <g id="line2d_25">
    <path d="M 61.67038 193.380238 
L 61.715498 193.230834 
L 61.825703 191.887353 
L 62.036536 186.093577 
L 62.411654 168.646978 
L 64.563861 56.698425 
L 65.101775 43.40874 
L 65.538468 37.354461 
L 65.872903 35.20311 
L 66.091344 34.808636 
L 66.215238 34.902319 
L 66.407613 35.461025 
L 66.699939 37.16371 
L 67.134685 41.252263 
L 67.773306 49.621844 
L 69.144061 71.376202 
L 70.450986 90.560815 
L 71.387001 101.244965 
L 72.17806 107.923942 
L 72.877631 112.066077 
L 73.459802 114.341477 
L 73.958539 115.523397 
L 74.360983 116.011143 
L 74.716405 116.128978 
L 75.020179 116.01813 
L 75.394057 115.639788 
L 75.908894 114.734421 
L 76.579676 113.00088 
L 77.426445 110.13988 
L 78.708978 104.943471 
L 82.153621 90.639967 
L 83.416739 86.432336 
L 84.546168 83.399803 
L 85.513733 81.386464 
L 86.408088 80.009277 
L 87.21812 79.154968 
L 87.933508 78.700134 
L 88.668924 78.512253 
L 89.297476 78.565003 
L 90.07108 78.883604 
L 90.866344 79.482641 
L 91.822335 80.53495 
L 92.809625 81.962297 
L 93.977597 84.03912 
L 95.344005 86.915874 
L 97.092773 91.147435 
L 99.450426 97.5241 
L 103.284333 108.675778 
L 108.574318 123.929428 
L 111.696071 132.268757 
L 114.536699 139.258356 
L 117.282075 145.42659 
L 119.901386 150.768255 
L 122.364075 155.319311 
L 124.930908 159.600343 
L 127.303523 163.163717 
L 129.765118 166.490219 
L 132.31903 169.575197 
L 134.968721 172.41764 
L 137.717784 175.019801 
L 140.569944 177.386794 
L 143.529069 179.52618 
L 146.59917 181.44755 
L 149.784409 183.162115 
L 153.089104 184.682316 
L 156.517734 186.02146 
L 160.528879 187.328813 
L 164.70965 188.444546 
L 169.06722 189.388567 
L 174.125426 190.25966 
L 179.965028 191.03092 
L 186.681873 191.68466 
L 194.389494 192.213343 
L 203.87523 192.64306 
L 216.157206 192.973267 
L 233.406639 193.203613 
L 262.495596 193.337491 
L 277.84145 193.360374 
L 277.84145 193.360374 
" clip-path="url(#p46193ce8e7)" style="fill: none; stroke: #1f77b4; stroke-width: 1.5; stroke-linecap: square"/>
   </g>
   <g id="patch_3">
    <path d="M 57.44 201.31 
L 57.44 26.88 
" style="fill: none; stroke: #000000; stroke-width: 0.8; stroke-linejoin: miter; stroke-linecap: square"/>
   </g>
   <g id="patch_4">
    <path d="M 277.2 201.31 
L 277.2 26.88 
" style="fill: none; stroke: #000000; stroke-width: 0.8; stroke-linejoin: miter; stroke-linecap: square"/>
   </g>
   <g id="patch_5">
    <path d="M 57.44 201.31 
L 277.2 201.31 
" style="fill: none; stroke: #000000; stroke-width: 0.8; stroke-linejoin: miter; stroke-linecap: square"/>
   </g>
   <g id="patch_6">
    <path d="M 57.44 26.88 
L 277.2 26.88 
" style="fill: none; stroke: #000000; stroke-width: 0.8; stroke-linejoin: miter; stroke-linecap: square"/>
   </g>
   <g id="text_8">
    <!-- Ne (Z=10) -->
    <g transform="translate(135.777812 20.88) scale(0.12 -0.12)">
     <defs>
      <path id="DejaVuSans-4e" d="M 628 4666 
L 1478 4666 
L 3547 763 
L 3547 4666 
L 4159 4666 
L 4159 0 
L 3309 0 
L 1241 3903 
L 1241 0 
L 628 0 
L 628 4666 
z
" transform="scale(0.015625)"/>
      <path id="DejaVuSans-65" d="M 3597 1894 
L 3597 1613 
L 953 1613 
Q 991 1019 1311 708 
Q 1631 397 2203 397 
Q 2534 397 2845 478 
Q 3156 559 3463 722 
L 3463 178 
Q 3153 47 2828 -22 
Q 2503 -91 2169 -91 
Q 1331 -91 842 396 
Q 353 884 353 1716 
Q 353 2575 817 3079 
Q 1281 3584 2069 3584 
Q 2775 3584 3186 3129 
Q 3597 2675 3597 1894 
z
M 3022 2063 
Q 3016 2534 2758 2815 
Q 2500 3097 2075 3097 
Q 1594 3097 1305 2825 
Q 1016 2553 972 2059 
L 3022 2063 
z
" transform="scale(0.015625)"/>
      <path id="DejaVuSans-5a" d="M 359 4666 
L 4025 4666 
L 4025 4184 
L 1075 531 
L 4097 531 
L 4097 0 
L 288 0 
L 288 481 
L 3238 4134 
L 359 4134 
L 359 4666 
z
" transform="scale(0.015625)"/>
     </defs>
     <use xlink:href="#DejaVuSans-4e"/>
     <use xlink:href="#DejaVuSans-65" transform="translate(74.804688 0)"/>
     <use xlink:href="#DejaVuSans-20" transform="translate(136.328125 0)"/>
     <use xlink:href="#DejaVuSans-28" transform="translate(168.115234 0)"/>
     <use xlink:href="#DejaVuSans-5a" transform="translate(207.128906 0)"/>
     <use xlink:href="#DejaVuSans-3d" transform="translate(275.634766 0)"/>
     <use xlink:href="#DejaVuSans-31" transform="translate(359.423828 0)"/>
     <use xlink:href="#DejaVuSans-30" transform="translate(423.046875 0)"/>
     <use xlink:href="#DejaVuSans-29" transform="translate(486.669922 0)"/>
    </g>
   </g>
  </g>
  <g id="axes_2">
   <g id="patch_7">
    <path d="M 57.44 390.04 
L 277.2 390.04 
L 277.2 215.61 
L 57.44 215.61 
z
" style="fill: #ffffff"/>
   </g>
   <g id="matplotlib.axis_3">
    <g id="xtick_7">
     <g id="line2d_26">
      <path d="M 61.666154 390.04 
L 61.666154 215.61 
" clip-path="url(#padf932a100)" style="fill: none; stroke: #b0b0b0; stroke-width: 0.8; stroke-linecap: square"/>
     </g>
     <g id="line2d_27">
      <g>
       <use xlink:href="#m7f1592e208" x="61.666154" y="390.04" style="stroke: #000000; stroke-width: 0.8"/>
      </g>
     </g>
     <g id="text_9">
      <!-- 0 -->
      <g transform="translate(58.484904 404.638438) scale(0.1 -0.1)">
       <use xlink:href="#DejaVuSans-30"/>
      </g>
     </g>
    </g>
    <g id="xtick_8">
     <g id="line2d_28">
      <path d="M 103.927692 390.04 
L 103.927692 215.61 
" clip-path="url(#padf932a100)" style="fill: none; stroke: #b0b0b0; stroke-width: 0.8; stroke-linecap: square"/>
     </g>
     <g id="line2d_29">
      <g>
       <use xlink:href="#m7f1592e208" x="103.927692" y="390.04" style="stroke: #000000; stroke-width: 0.8"/>
      </g>
     </g>
     <g id="text_10">
      <!-- 1 -->
      <g transform="translate(100.746442 404.638438) scale(0.1 -0.1)">
       <use xlink:href="#DejaVuSans-31"/>
      </g>
     </g>
    </g>
    <g id="xtick_9">
     <g id="line2d_30">
      <path d="M 146.189231 390.04 
L 146.189231 215.61 
" clip-path="url(#padf932a100)" style="fill: none; stroke: #b0b0b0; stroke-width: 0.8; stroke-linecap: square"/>
     </g>
     <g id="line2d_31">
      <g>
       <use xlink:href="#m7f1592e208" x="146.189231" y="390.04" style="stroke: #000000; stroke-width: 0.8"/>
      </g>
     </g>
     <g id="text_11">
      <!-- 2 -->
      <g transform="translate(143.007981 404.638438) scale(0.1 -0.1)">
       <use xlink:href="#DejaVuSans-32"/>
      </g>
     </g>
    </g>
    <g id="xtick_10">
     <g id="line2d_32">
      <path d="M 188.450769 390.04 
L 188.450769 215.61 
" clip-path="url(#padf932a100)" style="fill: none; stroke: #b0b0b0; stroke-width: 0.8; stroke-linecap: square"/>
     </g>
     <g id="line2d_33">
      <g>
       <use xlink:href="#m7f1592e208" x="188.450769" y="390.04" style="stroke: #000000; stroke-width: 0.8"/>
      </g>
     </g>
     <g id="text_12">
      <!-- 3 -->
      <g transform="translate(185.269519 404.638438) scale(0.1 -0.1)">
       <defs>
        <path id="DejaVuSans-33" d="M 2597 2516 
Q 3050 2419 3304 2112 
Q 3559 1806 3559 1356 
Q 3559 666 3084 287 
Q 2609 -91 1734 -91 
Q 1441 -91 1130 -33 
Q 819 25 488 141 
L 488 750 
Q 750 597 1062 519 
Q 1375 441 1716 441 
Q 2309 441 2620 675 
Q 2931 909 2931 1356 
Q 2931 1769 2642 2001 
Q 2353 2234 1838 2234 
L 1294 2234 
L 1294 2753 
L 1863 2753 
Q 2328 2753 2575 2939 
Q 2822 3125 2822 3475 
Q 2822 3834 2567 4026 
Q 2313 4219 1838 4219 
Q 1578 4219 1281 4162 
Q 984 4106 628 3988 
L 628 4550 
Q 988 4650 1302 4700 
Q 1616 4750 1894 4750 
Q 2613 4750 3031 4423 
Q 3450 4097 3450 3541 
Q 3450 3153 3228 2886 
Q 3006 2619 2597 2516 
z
" transform="scale(0.015625)"/>
       </defs>
       <use xlink:href="#DejaVuSans-33"/>
      </g>
     </g>
    </g>
    <g id="xtick_11">
     <g id="line2d_34">
      <path d="M 230.712308 390.04 
L 230.712308 215.61 
" clip-path="url(#padf932a100)" style="fill: none; stroke: #b0b0b0; stroke-width: 0.8; stroke-linecap: square"/>
     </g>
     <g id="line2d_35">
      <g>
       <use xlink:href="#m7f1592e208" x="230.712308" y="390.04" style="stroke: #000000; stroke-width: 0.8"/>
      </g>
     </g>
     <g id="text_13">
      <!-- 4 -->
      <g transform="translate(227.531058 404.638438) scale(0.1 -0.1)">
       <use xlink:href="#DejaVuSans-34"/>
      </g>
     </g>
    </g>
    <g id="xtick_12">
     <g id="line2d_36">
      <path d="M 272.973846 390.04 
L 272.973846 215.61 
" clip-path="url(#padf932a100)" style="fill: none; stroke: #b0b0b0; stroke-width: 0.8; stroke-linecap: square"/>
     </g>
     <g id="line2d_37">
      <g>
       <use xlink:href="#m7f1592e208" x="272.973846" y="390.04" style="stroke: #000000; stroke-width: 0.8"/>
      </g>
     </g>
     <g id="text_14">
      <!-- 5 -->
      <g transform="translate(269.792596 404.638438) scale(0.1 -0.1)">
       <defs>
        <path id="DejaVuSans-35" d="M 691 4666 
L 3169 4666 
L 3169 4134 
L 1269 4134 
L 1269 2991 
Q 1406 3038 1543 3061 
Q 1681 3084 1819 3084 
Q 2600 3084 3056 2656 
Q 3513 2228 3513 1497 
Q 3513 744 3044 326 
Q 2575 -91 1722 -91 
Q 1428 -91 1123 -41 
Q 819 9 494 109 
L 494 744 
Q 775 591 1075 516 
Q 1375 441 1709 441 
Q 2250 441 2565 725 
Q 2881 1009 2881 1497 
Q 2881 1984 2565 2268 
Q 2250 2553 1709 2553 
Q 1456 2553 1204 2497 
Q 953 2441 691 2322 
L 691 4666 
z
" transform="scale(0.015625)"/>
       </defs>
       <use xlink:href="#DejaVuSans-35"/>
      </g>
     </g>
    </g>
    <g id="text_15">
     <!-- r [Bohr] -->
     <g transform="translate(148.059844 418.316563) scale(0.1 -0.1)">
      <defs>
       <path id="DejaVuSans-5b" d="M 550 4863 
L 1875 4863 
L 1875 4416 
L 1125 4416 
L 1125 -397 
L 1875 -397 
L 1875 -844 
L 550 -844 
L 550 4863 
z
" transform="scale(0.015625)"/>
       <path id="DejaVuSans-42" d="M 1259 2228 
L 1259 519 
L 2272 519 
Q 2781 519 3026 730 
Q 3272 941 3272 1375 
Q 3272 1813 3026 2020 
Q 2781 2228 2272 2228 
L 1259 2228 
z
M 1259 4147 
L 1259 2741 
L 2194 2741 
Q 2656 2741 2882 2914 
Q 3109 3088 3109 3444 
Q 3109 3797 2882 3972 
Q 2656 4147 2194 4147 
L 1259 4147 
z
M 628 4666 
L 2241 4666 
Q 2963 4666 3353 4366 
Q 3744 4066 3744 3513 
Q 3744 3084 3544 2831 
Q 3344 2578 2956 2516 
Q 3422 2416 3680 2098 
Q 3938 1781 3938 1306 
Q 3938 681 3513 340 
Q 3088 0 2303 0 
L 628 0 
L 628 4666 
z
" transform="scale(0.015625)"/>
       <path id="DejaVuSans-68" d="M 3513 2113 
L 3513 0 
L 2938 0 
L 2938 2094 
Q 2938 2591 2744 2837 
Q 2550 3084 2163 3084 
Q 1697 3084 1428 2787 
Q 1159 2491 1159 1978 
L 1159 0 
L 581 0 
L 581 4863 
L 1159 4863 
L 1159 2956 
Q 1366 3272 1645 3428 
Q 1925 3584 2291 3584 
Q 2894 3584 3203 3211 
Q 3513 2838 3513 2113 
z
" transform="scale(0.015625)"/>
       <path id="DejaVuSans-5d" d="M 1947 4863 
L 1947 -844 
L 622 -844 
L 622 -397 
L 1369 -397 
L 1369 4416 
L 622 4416 
L 622 4863 
L 1947 4863 
z
" transform="scale(0.015625)"/>
      </defs>
      <use xlink:href="#DejaVuSans-72"/>
      <use xlink:href="#DejaVuSans-20" transform="translate(41.113281 0)"/>
      <use xlink:href="#DejaVuSans-5b" transform="translate(72.900391 0)"/>
      <use xlink:href="#DejaVuSans-42" transform="translate(111.914062 0)"/>
      <use xlink:href="#DejaVuSans-6f" transform="translate(180.517578 0)"/>
      <use xlink:href="#DejaVuSans-68" transform="translate(241.699219 0)"/>
      <use xlink:href="#DejaVuSans-72" transform="translate(305.078125 0)"/>
      <use xlink:href="#DejaVuSans-5d" transform="translate(346.191406 0)"/>
     </g>
    </g>
   </g>
   <g id="matplotlib.axis_4">
    <g id="ytick_7">
     <g id="line2d_38">
      <path d="M 57.44 383.270256 
L 277.2 383.270256 
" clip-path="url(#padf932a100)" style="fill: none; stroke: #b0b0b0; stroke-width: 0.8; stroke-linecap: square"/>
     </g>
     <g id="line2d_39">
      <g>
       <use xlink:href="#m11f74aacfa" x="57.44" y="383.270256" style="stroke: #000000; stroke-width: 0.8"/>
      </g>
     </g>
     <g id="text_16">
      <!-- −0.5 -->
      <g transform="translate(26.157188 387.069475) scale(0.1 -0.1)">
       <defs>
        <path id="DejaVuSans-2212" d="M 678 2272 
L 4684 2272 
L 4684 1741 
L 678 1741 
L 678 2272 
z
" transform="scale(0.015625)"/>
        <path id="DejaVuSans-2e" d="M 684 794 
L 1344 794 
L 1344 0 
L 684 0 
L 684 794 
z
" transform="scale(0.015625)"/>
       </defs>
       <use xlink:href="#DejaVuSans-2212"/>
       <use xlink:href="#DejaVuSans-30" transform="translate(83.789062 0)"/>
       <use xlink:href="#DejaVuSans-2e" transform="translate(147.412109 0)"/>
       <use xlink:href="#DejaVuSans-35" transform="translate(179.199219 0)"/>
      </g>
     </g>
    </g>
    <g id="ytick_8">
     <g id="line2d_40">
      <path d="M 57.44 354.42097 
L 277.2 354.42097 
" clip-path="url(#padf932a100)" style="fill: none; stroke: #b0b0b0; stroke-width: 0.8; stroke-linecap: square"/>
     </g>
     <g id="line2d_41">
      <g>
       <use xlink:href="#m11f74aacfa" x="57.44" y="354.42097" style="stroke: #000000; stroke-width: 0.8"/>
      </g>
     </g>
     <g id="text_17">
      <!-- 0.0 -->
      <g transform="translate(34.536875 358.220188) scale(0.1 -0.1)">
       <use xlink:href="#DejaVuSans-30"/>
       <use xlink:href="#DejaVuSans-2e" transform="translate(63.623047 0)"/>
       <use xlink:href="#DejaVuSans-30" transform="translate(95.410156 0)"/>
      </g>
     </g>
    </g>
    <g id="ytick_9">
     <g id="line2d_42">
      <path d="M 57.44 325.571683 
L 277.2 325.571683 
" clip-path="url(#padf932a100)" style="fill: none; stroke: #b0b0b0; stroke-width: 0.8; stroke-linecap: square"/>
     </g>
     <g id="line2d_43">
      <g>
       <use xlink:href="#m11f74aacfa" x="57.44" y="325.571683" style="stroke: #000000; stroke-width: 0.8"/>
      </g>
     </g>
     <g id="text_18">
      <!-- 0.5 -->
      <g transform="translate(34.536875 329.370902) scale(0.1 -0.1)">
       <use xlink:href="#DejaVuSans-30"/>
       <use xlink:href="#DejaVuSans-2e" transform="translate(63.623047 0)"/>
       <use xlink:href="#DejaVuSans-35" transform="translate(95.410156 0)"/>
      </g>
     </g>
    </g>
    <g id="ytick_10">
     <g id="line2d_44">
      <path d="M 57.44 296.722396 
L 277.2 296.722396 
" clip-path="url(#padf932a100)" style="fill: none; stroke: #b0b0b0; stroke-width: 0.8; stroke-linecap: square"/>
     </g>
     <g id="line2d_45">
      <g>
       <use xlink:href="#m11f74aacfa" x="57.44" y="296.722396" style="stroke: #000000; stroke-width: 0.8"/>
      </g>
     </g>
     <g id="text_19">
      <!-- 1.0 -->
      <g transform="translate(34.536875 300.521615) scale(0.1 -0.1)">
       <use xlink:href="#DejaVuSans-31"/>
       <use xlink:href="#DejaVuSans-2e" transform="translate(63.623047 0)"/>
       <use xlink:href="#DejaVuSans-30" transform="translate(95.410156 0)"/>
      </g>
     </g>
    </g>
    <g id="ytick_11">
     <g id="line2d_46">
      <path d="M 57.44 267.87311 
L 277.2 267.87311 
" clip-path="url(#padf932a100)" style="fill: none; stroke: #b0b0b0; stroke-width: 0.8; stroke-linecap: square"/>
     </g>
     <g id="line2d_47">
      <g>
       <use xlink:href="#m11f74aacfa" x="57.44" y="267.87311" style="stroke: #000000; stroke-width: 0.8"/>
      </g>
     </g>
     <g id="text_20">
      <!-- 1.5 -->
      <g transform="translate(34.536875 271.672329) scale(0.1 -0.1)">
       <use xlink:href="#DejaVuSans-31"/>
       <use xlink:href="#DejaVuSans-2e" transform="translate(63.623047 0)"/>
       <use xlink:href="#DejaVuSans-35" transform="translate(95.410156 0)"/>
      </g>
     </g>
    </g>
    <g id="ytick_12">
     <g id="line2d_48">
      <path d="M 57.44 239.023823 
L 277.2 239.023823 
" clip-path="url(#padf932a100)" style="fill: none; stroke: #b0b0b0; stroke-width: 0.8; stroke-linecap: square"/>
     </g>
     <g id="line2d_49">
      <g>
       <use xlink:href="#m11f74aacfa" x="57.44" y="239.023823" style="stroke: #000000; stroke-width: 0.8"/>
      </g>
     </g>
     <g id="text_21">
      <!-- 2.0 -->
      <g transform="translate(34.536875 242.823042) scale(0.1 -0.1)">
       <use xlink:href="#DejaVuSans-32"/>
       <use xlink:href="#DejaVuSans-2e" transform="translate(63.623047 0)"/>
       <use xlink:href="#DejaVuSans-30" transform="translate(95.410156 0)"/>
      </g>
     </g>
    </g>
    <g id="text_22">
     <!-- Radial orbitals $ u(r) = r \cdot R(r) $ -->
     <g transform="translate(20.0775 370.575) rotate(-90) scale(0.1 -0.1)">
      <defs>
       <path id="DejaVuSans-Oblique-75" d="M 428 1388 
L 838 3500 
L 1416 3500 
L 1006 1409 
Q 975 1256 961 1147 
Q 947 1038 947 966 
Q 947 700 1109 554 
Q 1272 409 1569 409 
Q 2031 409 2368 721 
Q 2706 1034 2809 1563 
L 3194 3500 
L 3769 3500 
L 3091 0 
L 2516 0 
L 2631 550 
Q 2388 244 2052 76 
Q 1716 -91 1338 -91 
Q 878 -91 622 161 
Q 366 413 366 863 
Q 366 956 381 1097 
Q 397 1238 428 1388 
z
" transform="scale(0.015625)"/>
       <path id="DejaVuSans-22c5" d="M 684 2619 
L 1344 2619 
L 1344 1825 
L 684 1825 
L 684 2619 
z
" transform="scale(0.015625)"/>
       <path id="DejaVuSans-Oblique-52" d="M 1613 4147 
L 1294 2491 
L 2106 2491 
Q 2584 2491 2879 2755 
Q 3175 3019 3175 3444 
Q 3175 3784 2976 3965 
Q 2778 4147 2406 4147 
L 1613 4147 
z
M 2772 2241 
Q 2972 2194 3105 2009 
Q 3238 1825 3413 1275 
L 3809 0 
L 3144 0 
L 2778 1197 
Q 2638 1659 2453 1815 
Q 2269 1972 1888 1972 
L 1191 1972 
L 806 0 
L 172 0 
L 1081 4666 
L 2503 4666 
Q 3150 4666 3495 4373 
Q 3841 4081 3841 3531 
Q 3841 3044 3547 2687 
Q 3253 2331 2772 2241 
z
" transform="scale(0.015625)"/>
      </defs>
      <use xlink:href="#DejaVuSans-52" transform="translate(0 0.015625)"/>
      <use xlink:href="#DejaVuSans-61" transform="translate(69.482422 0.015625)"/>
      <use xlink:href="#DejaVuSans-64" transform="translate(130.761719 0.015625)"/>
      <use xlink:href="#DejaVuSans-69" transform="translate(194.238281 0.015625)"/>
      <use xlink:href="#DejaVuSans-61" transform="translate(222.021484 0.015625)"/>
      <use xlink:href="#DejaVuSans-6c" transform="translate(283.300781 0.015625)"/>
      <use xlink:href="#DejaVuSans-20" transform="translate(311.083984 0.015625)"/>
      <use xlink:href="#DejaVuSans-6f" transform="translate(342.871094 0.015625)"/>
      <use xlink:href="#DejaVuSans-72" transform="translate(404.052734 0.015625)"/>
      <use xlink:href="#DejaVuSans-62" transform="translate(445.166016 0.015625)"/>
      <use xlink:href="#DejaVuSans-69" transform="translate(508.642578 0.015625)"/>
      <use xlink:href="#DejaVuSans-74" transform="translate(536.425781 0.015625)"/>
      <use xlink:href="#DejaVuSans-61" transform="translate(575.634766 0.015625)"/>
      <use xlink:href="#DejaVuSans-6c" transform="translate(636.914062 0.015625)"/>
      <use xlink:href="#DejaVuSans-73" transform="translate(664.697266 0.015625)"/>
      <use xlink:href="#DejaVuSans-20" transform="translate(716.796875 0.015625)"/>
      <use xlink:href="#DejaVuSans-Oblique-75" transform="translate(748.583984 0.015625)"/>
      <use xlink:href="#DejaVuSans-28" transform="translate(811.962891 0.015625)"/>
      <use xlink:href="#DejaVuSans-Oblique-72" transform="translate(850.976562 0.015625)"/>
      <use xlink:href="#DejaVuSans-29" transform="translate(892.089844 0.015625)"/>
      <use xlink:href="#DejaVuSans-3d" transform="translate(950.585938 0.015625)"/>
      <use xlink:href="#DejaVuSans-Oblique-72" transform="translate(1053.857422 0.015625)"/>
      <use xlink:href="#DejaVuSans-22c5" transform="translate(1114.453125 0.015625)"/>
      <use xlink:href="#DejaVuSans-Oblique-52" transform="translate(1165.722656 0.015625)"/>
      <use xlink:href="#DejaVuSans-28" transform="translate(1235.205078 0.015625)"/>
      <use xlink:href="#DejaVuSans-Oblique-72" transform="translate(1274.21875 0.015625)"/>
      <use xlink:href="#DejaVuSans-29" transform="translate(1315.332031 0.015625)"/>
     </g>
    </g>
   </g>
   <g id="line2d_50">
    <path d="M 61.67038 354.072894 
L 62.384706 304.376662 
L 63.066596 271.332277 
L 63.708625 250.13816 
L 64.309057 237.080297 
L 64.843232 229.782798 
L 65.313592 226.046913 
L 65.702223 224.513426 
L 65.970825 224.147239 
L 66.152864 224.182257 
L 66.364172 224.481437 
L 66.676826 225.37909 
L 67.109576 227.386353 
L 67.717352 231.390431 
L 68.581322 238.741917 
L 70.017339 253.183498 
L 73.138604 284.780186 
L 74.716405 298.363676 
L 76.173508 309.051118 
L 77.572175 317.679651 
L 78.866568 324.364595 
L 80.180893 330.021277 
L 81.504141 334.719111 
L 82.824365 338.557873 
L 84.128837 341.651625 
L 85.404236 344.116322 
L 86.752052 346.223839 
L 88.054671 347.862305 
L 89.424931 349.24261 
L 90.866344 350.389006 
L 92.382604 351.327113 
L 94.126641 352.143566 
L 96.127934 352.821818 
L 98.421376 353.356896 
L 101.22993 353.776535 
L 104.845138 354.084173 
L 110.110055 354.290728 
L 119.367836 354.396704 
L 150.599211 354.420889 
L 277.84145 354.42097 
L 277.84145 354.42097 
" clip-path="url(#padf932a100)" style="fill: none; stroke: #d62728; stroke-width: 1.5; stroke-linecap: square"/>
   </g>
   <g id="line2d_51">
    <path d="M 61.67038 354.503863 
L 62.378123 366.213702 
L 63.034739 373.683067 
L 63.634795 378.17634 
L 64.155576 380.581442 
L 64.590656 381.692515 
L 64.947247 382.076868 
L 65.230621 382.083477 
L 65.520688 381.844453 
L 65.892308 381.21368 
L 66.385842 379.8869 
L 67.034939 377.44194 
L 67.915464 373.161218 
L 69.144061 365.975509 
L 71.613276 349.868226 
L 74.129429 334.06075 
L 75.908894 324.233806 
L 77.499142 316.640435 
L 78.945909 310.746584 
L 80.352093 305.925906 
L 81.687577 302.134802 
L 82.921962 299.266818 
L 84.128837 297.00756 
L 85.295242 295.292534 
L 86.408088 294.046819 
L 87.454391 293.191185 
L 88.54494 292.593556 
L 89.552974 292.281948 
L 90.598812 292.177988 
L 91.683872 292.280896 
L 92.953281 292.640858 
L 94.276371 293.253627 
L 95.812196 294.220675 
L 97.585276 295.614879 
L 99.624714 297.502365 
L 102.337612 300.342834 
L 106.258784 304.82187 
L 116.26764 316.399081 
L 120.439869 320.821424 
L 124.351278 324.640667 
L 127.910452 327.823828 
L 131.67171 330.8845 
L 135.306845 333.555477 
L 139.130739 336.076793 
L 142.779043 338.225432 
L 146.59917 340.227991 
L 150.599211 342.078232 
L 154.78764 343.77268 
L 159.173329 345.310491 
L 163.765568 346.693279 
L 168.574085 347.924889 
L 174.125426 349.112046 
L 179.965028 350.133426 
L 186.681873 351.072756 
L 194.389494 351.904234 
L 203.222273 352.609845 
L 213.339288 353.181036 
L 225.682076 353.641835 
L 241.495001 353.992618 
L 263.421963 354.23486 
L 277.84145 354.3136 
L 277.84145 354.3136 
" clip-path="url(#padf932a100)" style="fill: none; stroke-dasharray: 5.55,2.4; stroke-dashoffset: 0; stroke: #d62728; stroke-width: 1.5"/>
   </g>
   <g id="line2d_52">
    <path d="M 61.67038 354.420945 
L 62.021509 354.308552 
L 62.432526 353.922634 
L 62.949342 353.104944 
L 63.625756 351.579602 
L 64.52413 348.954963 
L 65.796172 344.484473 
L 68.392988 334.327012 
L 70.90715 324.889871 
L 72.723905 318.886884 
L 74.360983 314.202806 
L 75.908894 310.430211 
L 77.354081 307.472188 
L 78.708978 305.169597 
L 80.011261 303.35761 
L 81.322386 301.899934 
L 82.630514 300.780242 
L 83.923034 299.970698 
L 85.186749 299.43514 
L 86.522215 299.113887 
L 87.933508 299.014936 
L 89.424931 299.143314 
L 91.001036 299.500918 
L 92.809625 300.145402 
L 94.882233 301.131714 
L 97.256186 302.510419 
L 100.329941 304.573192 
L 104.449533 307.629279 
L 120.983332 320.169408 
L 126.106297 323.645754 
L 131.030321 326.725674 
L 135.987778 329.56405 
L 140.933905 332.140606 
L 145.821016 334.448572 
L 151.009434 336.657311 
L 156.517734 338.751699 
L 162.365639 340.718974 
L 168.083214 342.413198 
L 174.125426 343.984298 
L 180.510706 345.428189 
L 187.837855 346.846477 
L 195.616746 348.113019 
L 203.87523 349.230412 
L 213.339288 350.2728 
L 223.433182 351.157243 
L 234.99467 351.942827 
L 248.239113 352.614485 
L 264.352604 353.192093 
L 277.84145 353.531194 
L 277.84145 353.531194 
" clip-path="url(#padf932a100)" style="fill: none; stroke-dasharray: 9.6,2.4,1.5,2.4; stroke-dashoffset: 0; stroke: #d62728; stroke-width: 1.5"/>
   </g>
   <g id="line2d_53">
    <path d="M 61.67038 354.070695 
L 62.384706 304.115931 
L 63.066596 270.893455 
L 63.708625 249.580884 
L 64.309057 236.455877 
L 64.843232 229.134021 
L 65.313592 225.402765 
L 65.683692 223.933548 
L 65.95106 223.553403 
L 66.132263 223.582271 
L 66.342601 223.877558 
L 66.65382 224.775551 
L 67.084582 226.79435 
L 67.689568 230.833362 
L 68.549571 238.263407 
L 69.978994 252.878666 
L 73.085927 284.859968 
L 74.656484 298.584554 
L 76.106897 309.358488 
L 77.499142 318.031885 
L 78.787592 324.729473 
L 80.095882 330.376276 
L 81.322386 334.754884 
L 82.534256 338.337503 
L 83.820841 341.457058 
L 85.078753 343.93785 
L 86.408088 346.055345 
L 87.692847 347.698856 
L 89.044318 349.081542 
L 90.465967 350.228854 
L 91.961437 351.167513 
L 93.681561 351.985234 
L 95.655414 352.666651 
L 97.917409 353.207966 
L 100.687454 353.638567 
L 104.253092 353.963735 
L 109.445819 354.197383 
L 118.315357 354.339956 
L 140.207655 354.403372 
L 277.84145 354.420737 
L 277.84145 354.420737 
" clip-path="url(#padf932a100)" style="fill: none; stroke: #333333; stroke-width: 1.5; stroke-linecap: square"/>
   </g>
   <g id="line2d_54">
    <path d="M 61.67038 354.503231 
L 62.378123 366.110229 
L 63.034739 373.517413 
L 63.634795 377.978534 
L 64.155576 380.370192 
L 64.590656 381.477431 
L 64.947247 381.862212 
L 65.230621 381.870811 
L 65.520688 381.634902 
L 65.892308 381.009167 
L 66.385842 379.689948 
L 67.034939 377.254793 
L 67.915464 372.984356 
L 69.144061 365.803046 
L 71.522141 350.264491 
L 74.129429 333.778102 
L 75.908894 323.885206 
L 77.499142 316.233509 
L 78.945909 310.290852 
L 80.352093 305.428672 
L 81.687577 301.604734 
L 82.921962 298.712749 
L 84.128837 296.436286 
L 85.295242 294.710694 
L 86.408088 293.460492 
L 87.454391 292.605568 
L 88.54494 292.013626 
L 89.552974 291.711589 
L 90.598812 291.621709 
L 91.683872 291.743402 
L 92.953281 292.130283 
L 94.276371 292.776178 
L 95.812196 293.787268 
L 97.585276 295.23844 
L 99.624714 297.197606 
L 102.337612 300.140034 
L 106.258784 304.771766 
L 116.016936 316.42866 
L 120.170008 320.978506 
L 124.063457 324.905535 
L 127.606289 328.174804 
L 131.030321 331.057222 
L 134.632151 333.802761 
L 138.068588 336.160972 
L 141.666869 338.37379 
L 145.434617 340.430686 
L 149.379812 342.324358 
L 153.510811 344.050722 
L 157.836366 345.608827 
L 162.365639 347.000693 
L 167.108224 348.231051 
L 172.583448 349.40646 
L 178.342981 350.407329 
L 184.967728 351.317137 
L 191.968619 352.057147 
L 200.640288 352.734803 
L 210.572769 353.275929 
L 222.690424 353.706579 
L 238.214921 354.030295 
L 260.655601 354.257585 
L 277.84145 354.33725 
L 277.84145 354.33725 
" clip-path="url(#padf932a100)" style="fill: none; stroke-dasharray: 5.55,2.4; stroke-dashoffset: 0; stroke: #333333; stroke-width: 1.5"/>
   </g>
   <g id="line2d_55">
    <path d="M 61.67038 354.420954 
L 62.02978 354.307609 
L 62.446764 353.92297 
L 62.973182 353.105806 
L 63.652998 351.604513 
L 64.550557 349.042376 
L 65.815223 344.702723 
L 68.270291 335.299818 
L 70.992599 325.201285 
L 72.877631 319.038037 
L 74.537467 314.324808 
L 76.106897 310.510283 
L 77.572175 307.502971 
L 79.025615 305.024018 
L 80.352093 303.172098 
L 81.687577 301.67375 
L 83.020008 300.514588 
L 84.336542 299.668628 
L 85.623735 299.101212 
L 86.984013 298.751458 
L 88.421526 298.629143 
L 89.940658 298.741135 
L 91.546045 299.091119 
L 93.388236 299.739126 
L 95.344005 300.662601 
L 97.750961 302.058666 
L 100.687454 304.043113 
L 104.449533 306.870223 
L 111.696071 312.665084 
L 119.102897 318.482173 
L 124.640426 322.545788 
L 129.765118 326.025545 
L 134.632151 329.06274 
L 139.48806 331.831158 
L 144.286031 334.315744 
L 149.379812 336.692835 
L 154.36007 338.772921 
L 159.623101 340.728238 
L 165.18496 342.546735 
L 171.062613 344.219438 
L 177.273991 345.740727 
L 183.838042 347.108437 
L 190.774791 348.323779 
L 198.105399 349.391059 
L 206.517316 350.388335 
L 216.157206 351.290582 
L 227.198681 352.078718 
L 239.847414 352.741081 
L 254.347368 353.274129 
L 272.92394 353.719279 
L 277.84145 353.805214 
L 277.84145 353.805214 
" clip-path="url(#padf932a100)" style="fill: none; stroke-dasharray: 9.6,2.4,1.5,2.4; stroke-dashoffset: 0; stroke: #333333; stroke-width: 1.5"/>
   </g>
   <g id="patch_8">
    <path d="M 57.44 390.04 
L 57.44 215.61 
" style="fill: none; stroke: #000000; stroke-width: 0.8; stroke-linejoin: miter; stroke-linecap: square"/>
   </g>
   <g id="patch_9">
    <path d="M 277.2 390.04 
L 277.2 215.61 
" style="fill: none; stroke: #000000; stroke-width: 0.8; stroke-linejoin: miter; stroke-linecap: square"/>
   </g>
   <g id="patch_10">
    <path d="M 57.44 390.04 
L 277.2 390.04 
" style="fill: none; stroke: #000000; stroke-width: 0.8; stroke-linejoin: miter; stroke-linecap: square"/>
   </g>
   <g id="patch_11">
    <path d="M 57.44 215.61 
L 277.2 215.61 
" style="fill: none; stroke: #000000; stroke-width: 0.8; stroke-linejoin: miter; stroke-linecap: square"/>
   </g>
   <g id="legend_1">
    <g id="patch_12">
     <path d="M 174.570312 311.67875 
L 270.2 311.67875 
Q 272.2 311.67875 272.2 309.67875 
L 272.2 222.61 
Q 272.2 220.61 270.2 220.61 
L 174.570312 220.61 
Q 172.570312 220.61 172.570312 222.61 
L 172.570312 309.67875 
Q 172.570312 311.67875 174.570312 311.67875 
z
" style="fill: #ffffff; opacity: 0.8; stroke: #cccccc; stroke-linejoin: miter"/>
    </g>
    <g id="line2d_56">
     <path d="M 176.570312 228.708438 
L 186.570312 228.708438 
L 196.570312 228.708438 
" style="fill: none; stroke: #d62728; stroke-width: 1.5; stroke-linecap: square"/>
    </g>
    <g id="text_23">
     <!-- orbital 1s -->
     <g transform="translate(204.570312 232.208438) scale(0.1 -0.1)">
      <use xlink:href="#DejaVuSans-6f"/>
      <use xlink:href="#DejaVuSans-72" transform="translate(61.181641 0)"/>
      <use xlink:href="#DejaVuSans-62" transform="translate(102.294922 0)"/>
      <use xlink:href="#DejaVuSans-69" transform="translate(165.771484 0)"/>
      <use xlink:href="#DejaVuSans-74" transform="translate(193.554688 0)"/>
      <use xlink:href="#DejaVuSans-61" transform="translate(232.763672 0)"/>
      <use xlink:href="#DejaVuSans-6c" transform="translate(294.042969 0)"/>
      <use xlink:href="#DejaVuSans-20" transform="translate(321.826172 0)"/>
      <use xlink:href="#DejaVuSans-31" transform="translate(353.613281 0)"/>
      <use xlink:href="#DejaVuSans-73" transform="translate(417.236328 0)"/>
     </g>
    </g>
    <g id="line2d_57">
     <path d="M 176.570312 243.386562 
L 186.570312 243.386562 
L 196.570312 243.386562 
" style="fill: none; stroke-dasharray: 5.55,2.4; stroke-dashoffset: 0; stroke: #d62728; stroke-width: 1.5"/>
    </g>
    <g id="text_24">
     <!-- orbital 2s -->
     <g transform="translate(204.570312 246.886562) scale(0.1 -0.1)">
      <use xlink:href="#DejaVuSans-6f"/>
      <use xlink:href="#DejaVuSans-72" transform="translate(61.181641 0)"/>
      <use xlink:href="#DejaVuSans-62" transform="translate(102.294922 0)"/>
      <use xlink:href="#DejaVuSans-69" transform="translate(165.771484 0)"/>
      <use xlink:href="#DejaVuSans-74" transform="translate(193.554688 0)"/>
      <use xlink:href="#DejaVuSans-61" transform="translate(232.763672 0)"/>
      <use xlink:href="#DejaVuSans-6c" transform="translate(294.042969 0)"/>
      <use xlink:href="#DejaVuSans-20" transform="translate(321.826172 0)"/>
      <use xlink:href="#DejaVuSans-32" transform="translate(353.613281 0)"/>
      <use xlink:href="#DejaVuSans-73" transform="translate(417.236328 0)"/>
     </g>
    </g>
    <g id="line2d_58">
     <path d="M 176.570312 258.064687 
L 186.570312 258.064687 
L 196.570312 258.064687 
" style="fill: none; stroke-dasharray: 9.6,2.4,1.5,2.4; stroke-dashoffset: 0; stroke: #d62728; stroke-width: 1.5"/>
    </g>
    <g id="text_25">
     <!-- orbital 2p -->
     <g transform="translate(204.570312 261.564687) scale(0.1 -0.1)">
      <defs>
       <path id="DejaVuSans-70" d="M 1159 525 
L 1159 -1331 
L 581 -1331 
L 581 3500 
L 1159 3500 
L 1159 2969 
Q 1341 3281 1617 3432 
Q 1894 3584 2278 3584 
Q 2916 3584 3314 3078 
Q 3713 2572 3713 1747 
Q 3713 922 3314 415 
Q 2916 -91 2278 -91 
Q 1894 -91 1617 61 
Q 1341 213 1159 525 
z
M 3116 1747 
Q 3116 2381 2855 2742 
Q 2594 3103 2138 3103 
Q 1681 3103 1420 2742 
Q 1159 2381 1159 1747 
Q 1159 1113 1420 752 
Q 1681 391 2138 391 
Q 2594 391 2855 752 
Q 3116 1113 3116 1747 
z
" transform="scale(0.015625)"/>
      </defs>
      <use xlink:href="#DejaVuSans-6f"/>
      <use xlink:href="#DejaVuSans-72" transform="translate(61.181641 0)"/>
      <use xlink:href="#DejaVuSans-62" transform="translate(102.294922 0)"/>
      <use xlink:href="#DejaVuSans-69" transform="translate(165.771484 0)"/>
      <use xlink:href="#DejaVuSans-74" transform="translate(193.554688 0)"/>
      <use xlink:href="#DejaVuSans-61" transform="translate(232.763672 0)"/>
      <use xlink:href="#DejaVuSans-6c" transform="translate(294.042969 0)"/>
      <use xlink:href="#DejaVuSans-20" transform="translate(321.826172 0)"/>
      <use xlink:href="#DejaVuSans-32" transform="translate(353.613281 0)"/>
      <use xlink:href="#DejaVuSans-70" transform="translate(417.236328 0)"/>
     </g>
    </g>
    <g id="line2d_59">
     <path d="M 176.570312 272.742813 
L 186.570312 272.742813 
L 196.570312 272.742813 
" style="fill: none; stroke: #333333; stroke-width: 1.5; stroke-linecap: square"/>
    </g>
    <g id="text_26">
     <!-- reference 1s -->
     <g transform="translate(204.570312 276.242813) scale(0.1 -0.1)">
      <use xlink:href="#DejaVuSans-72"/>
      <use xlink:href="#DejaVuSans-65" transform="translate(38.863281 0)"/>
      <use xlink:href="#DejaVuSans-66" transform="translate(100.386719 0)"/>
      <use xlink:href="#DejaVuSans-65" transform="translate(135.591797 0)"/>
      <use xlink:href="#DejaVuSans-72" transform="translate(197.115234 0)"/>
      <use xlink:href="#DejaVuSans-65" transform="translate(235.978516 0)"/>
      <use xlink:href="#DejaVuSans-6e" transform="translate(297.501953 0)"/>
      <use xlink:href="#DejaVuSans-63" transform="translate(360.880859 0)"/>
      <use xlink:href="#DejaVuSans-65" transform="translate(415.861328 0)"/>
      <use xlink:href="#DejaVuSans-20" transform="translate(477.384766 0)"/>
      <use xlink:href="#DejaVuSans-31" transform="translate(509.171875 0)"/>
      <use xlink:href="#DejaVuSans-73" transform="translate(572.794922 0)"/>
     </g>
    </g>
    <g id="line2d_60">
     <path d="M 176.570312 287.420938 
L 186.570312 287.420938 
L 196.570312 287.420938 
" style="fill: none; stroke-dasharray: 5.55,2.4; stroke-dashoffset: 0; stroke: #333333; stroke-width: 1.5"/>
    </g>
    <g id="text_27">
     <!-- reference 2s -->
     <g transform="translate(204.570312 290.920938) scale(0.1 -0.1)">
      <use xlink:href="#DejaVuSans-72"/>
      <use xlink:href="#DejaVuSans-65" transform="translate(38.863281 0)"/>
      <use xlink:href="#DejaVuSans-66" transform="translate(100.386719 0)"/>
      <use xlink:href="#DejaVuSans-65" transform="translate(135.591797 0)"/>
      <use xlink:href="#DejaVuSans-72" transform="translate(197.115234 0)"/>
      <use xlink:href="#DejaVuSans-65" transform="translate(235.978516 0)"/>
      <use xlink:href="#DejaVuSans-6e" transform="translate(297.501953 0)"/>
      <use xlink:href="#DejaVuSans-63" transform="translate(360.880859 0)"/>
      <use xlink:href="#DejaVuSans-65" transform="translate(415.861328 0)"/>
      <use xlink:href="#DejaVuSans-20" transform="translate(477.384766 0)"/>
      <use xlink:href="#DejaVuSans-32" transform="translate(509.171875 0)"/>
      <use xlink:href="#DejaVuSans-73" transform="translate(572.794922 0)"/>
     </g>
    </g>
    <g id="line2d_61">
     <path d="M 176.570312 302.099063 
L 186.570312 302.099063 
L 196.570312 302.099063 
" style="fill: none; stroke-dasharray: 9.6,2.4,1.5,2.4; stroke-dashoffset: 0; stroke: #333333; stroke-width: 1.5"/>
    </g>
    <g id="text_28">
     <!-- reference 2p -->
     <g transform="translate(204.570312 305.599063) scale(0.1 -0.1)">
      <use xlink:href="#DejaVuSans-72"/>
      <use xlink:href="#DejaVuSans-65" transform="translate(38.863281 0)"/>
      <use xlink:href="#DejaVuSans-66" transform="translate(100.386719 0)"/>
      <use xlink:href="#DejaVuSans-65" transform="translate(135.591797 0)"/>
      <use xlink:href="#DejaVuSans-72" transform="translate(197.115234 0)"/>
      <use xlink:href="#DejaVuSans-65" transform="translate(235.978516 0)"/>
      <use xlink:href="#DejaVuSans-6e" transform="translate(297.501953 0)"/>
      <use xlink:href="#DejaVuSans-63" transform="translate(360.880859 0)"/>
      <use xlink:href="#DejaVuSans-65" transform="translate(415.861328 0)"/>
      <use xlink:href="#DejaVuSans-20" transform="translate(477.384766 0)"/>
      <use xlink:href="#DejaVuSans-32" transform="translate(509.171875 0)"/>
      <use xlink:href="#DejaVuSans-70" transform="translate(572.794922 0)"/>
     </g>
    </g>
   </g>
  </g>
 </g>
 <defs>
  <clipPath id="p46193ce8e7">
   <rect x="57.44" y="26.88" width="219.76" height="174.43"/>
  </clipPath>
  <clipPath id="padf932a100">
   <rect x="57.44" y="215.61" width="219.76" height="174.43"/>
  </clipPath>
 </defs>
</svg>
