<?xml version="1.0" encoding="utf-8" standalone="no"?>
<!DOCTYPE svg PUBLIC "-//W3C//DTD SVG 1.1//EN"
  "http://www.w3.org/Graphics/SVG/1.1/DTD/svg11.dtd">
<svg xmlns:xlink="http://www.w3.org/1999/xlink" width="288pt" height="432pt" viewBox="0 0 288 432" xmlns="http://www.w3.org/2000/svg" version="1.1">
 <metadata>
  <rdf:RDF xmlns:dc="http://purl.org/dc/elements/1.1/" xmlns:cc="http://creativecommons.org/ns#" xmlns:rdf="http://www.w3.org/1999/02/22-rdf-syntax-ns#">
   <cc:Work>
    <dc:type rdf:resource="http://purl.org/dc/dcmitype/StillImage"/>
    <dc:date>2025-09-12T02:05:23.622526</dc:date>
    <dc:format>image/svg+xml</dc:format>
    <dc:creator>
     <cc:Agent>
      <dc:title>Matplotlib v3.10.6, https://matplotlib.org/</dc:title>
     </cc:Agent>
    </dc:creator>
   </cc:Work>
  </rdf:RDF>
 </metadata>
 <defs>
  <style type="text/css">*{stroke-linejoin: round; stroke-linecap: butt}</style>
 </defs>
 <g id="figure_1">
  <g id="patch_1">
   <path d="M 0 432 
L 288 432 
L 288 0 
L 0 0 
z
" style="fill: #ffffff"/>
  </g>
  <g id="axes_1">
   <g id="patch_2">
    <path d="M 57.44 200.302 
L 277.2 200.302 
L 277.2 26.88 
L 57.44 26.88 
z
" style="fill: #ffffff"/>
   </g>
   <g id="matplotlib.axis_1">
    <g id="xtick_1">
     <g id="line2d_1">
      <path d="M 61.666154 200.302 
L 61.666154 26.88 
" clip-path="url(#p51d6ce5797)" style="fill: none; stroke: #b0b0b0; stroke-width: 0.8; stroke-linecap: square"/>
     </g>
     <g id="line2d_2">
      <defs>
       <path id="m6f4efc9d4d" d="M 0 0 
L 0 3.5 
" style="stroke: #000000; stroke-width: 0.8"/>
      </defs>
      <g>
       <use xlink:href="#m6f4efc9d4d" x="61.666154" y="200.302" style="stroke: #000000; stroke-width: 0.8"/>
      </g>
     </g>
    </g>
    <g id="xtick_2">
     <g id="line2d_3">
      <path d="M 103.927692 200.302 
L 103.927692 26.88 
" clip-path="url(#p51d6ce5797)" style="fill: none; stroke: #b0b0b0; stroke-width: 0.8; stroke-linecap: square"/>
     </g>
     <g id="line2d_4">
      <g>
       <use xlink:href="#m6f4efc9d4d" x="103.927692" y="200.302" style="stroke: #000000; stroke-width: 0.8"/>
      </g>
     </g>
    </g>
    <g id="xtick_3">
     <g id="line2d_5">
      <path d="M 146.189231 200.302 
L 146.189231 26.88 
" clip-path="url(#p51d6ce5797)" style="fill: none; stroke: #b0b0b0; stroke-width: 0.8; stroke-linecap: square"/>
     </g>
     <g id="line2d_6">
      <g>
       <use xlink:href="#m6f4efc9d4d" x="146.189231" y="200.302" style="stroke: #000000; stroke-width: 0.8"/>
      </g>
     </g>
    </g>
    <g id="xtick_4">
     <g id="line2d_7">
      <path d="M 188.450769 200.302 
L 188.450769 26.88 
" clip-path="url(#p51d6ce5797)" style="fill: none; stroke: #b0b0b0; stroke-width: 0.8; stroke-linecap: square"/>
     </g>
     <g id="line2d_8">
      <g>
       <use xlink:href="#m6f4efc9d4d" x="188.450769" y="200.302" style="stroke: #000000; stroke-width: 0.8"/>
      </g>
     </g>
    </g>
    <g id="xtick_5">
     <g id="line2d_9">
      <path d="M 230.712308 200.302 
L 230.712308 26.88 
" clip-path="url(#p51d6ce5797)" style="fill: none; stroke: #b0b0b0; stroke-width: 0.8; stroke-linecap: square"/>
     </g>
     <g id="line2d_10">
      <g>
       <use xlink:href="#m6f4efc9d4d" x="230.712308" y="200.302" style="stroke: #000000; stroke-width: 0.8"/>
      </g>
     </g>
    </g>
    <g id="xtick_6">
     <g id="line2d_11">
      <path d="M 272.973846 200.302 
L 272.973846 26.88 
" clip-path="url(#p51d6ce5797)" style="fill: none; stroke: #b0b0b0; stroke-width: 0.8; stroke-linecap: square"/>
     </g>
     <g id="line2d_12">
      <g>
       <use xlink:href="#m6f4efc9d4d" x="272.973846" y="200.302" style="stroke: #000000; stroke-width: 0.8"/>
      </g>
     </g>
    </g>
   </g>
   <g id="matplotlib.axis_2">
    <g id="ytick_1">
     <g id="line2d_13">
      <path d="M 57.44 192.419182 
L 277.2 192.419182 
" clip-path="url(#p51d6ce5797)" style="fill: none; stroke: #b0b0b0; stroke-width: 0.8; stroke-linecap: square"/>
     </g>
     <g id="line2d_14">
      <defs>
       <path id="mdc6d310f6b" d="M 0 0 
L -3.5 0 
" style="stroke: #000000; stroke-width: 0.8"/>
      </defs>
      <g>
       <use xlink:href="#mdc6d310f6b" x="57.44" y="192.419182" style="stroke: #000000; stroke-width: 0.8"/>
      </g>
     </g>
     <g id="text_1">
      <!-- 0 -->
      <g transform="translate(44.0775 196.218401) scale(0.1 -0.1)">
       <defs>
        <path id="DejaVuSans-30" d="M 2034 4250 
Q 1547 4250 1301 3770 
Q 1056 3291 1056 2328 
Q 1056 1369 1301 889 
Q 1547 409 2034 409 
Q 2525 409 2770 889 
Q 3016 1369 3016 2328 
Q 3016 3291 2770 3770 
Q 2525 4250 2034 4250 
z
M 2034 4750 
Q 2819 4750 3233 4129 
Q 3647 3509 3647 2328 
Q 3647 1150 3233 529 
Q 2819 -91 2034 -91 
Q 1250 -91 836 529 
Q 422 1150 422 2328 
Q 422 3509 836 4129 
Q 1250 4750 2034 4750 
z
" transform="scale(0.015625)"/>
       </defs>
       <use xlink:href="#DejaVuSans-30"/>
      </g>
     </g>
    </g>
    <g id="ytick_2">
     <g id="line2d_15">
      <path d="M 57.44 163.310064 
L 277.2 163.310064 
" clip-path="url(#p51d6ce5797)" style="fill: none; stroke: #b0b0b0; stroke-width: 0.8; stroke-linecap: square"/>
     </g>
     <g id="line2d_16">
      <g>
       <use xlink:href="#mdc6d310f6b" x="57.44" y="163.310064" style="stroke: #000000; stroke-width: 0.8"/>
      </g>
     </g>
     <g id="text_2">
      <!-- 2 -->
      <g transform="translate(44.0775 167.109283) scale(0.1 -0.1)">
       <defs>
        <path id="DejaVuSans-32" d="M 1228 531 
L 3431 531 
L 3431 0 
L 469 0 
L 469 531 
Q 828 903 1448 1529 
Q 2069 2156 2228 2338 
Q 2531 2678 2651 2914 
Q 2772 3150 2772 3378 
Q 2772 3750 2511 3984 
Q 2250 4219 1831 4219 
Q 1534 4219 1204 4116 
Q 875 4013 500 3803 
L 500 4441 
Q 881 4594 1212 4672 
Q 1544 4750 1819 4750 
Q 2544 4750 2975 4387 
Q 3406 4025 3406 3419 
Q 3406 3131 3298 2873 
Q 3191 2616 2906 2266 
Q 2828 2175 2409 1742 
Q 1991 1309 1228 531 
z
" transform="scale(0.015625)"/>
       </defs>
       <use xlink:href="#DejaVuSans-32"/>
      </g>
     </g>
    </g>
    <g id="ytick_3">
     <g id="line2d_17">
      <path d="M 57.44 134.200947 
L 277.2 134.200947 
" clip-path="url(#p51d6ce5797)" style="fill: none; stroke: #b0b0b0; stroke-width: 0.8; stroke-linecap: square"/>
     </g>
     <g id="line2d_18">
      <g>
       <use xlink:href="#mdc6d310f6b" x="57.44" y="134.200947" style="stroke: #000000; stroke-width: 0.8"/>
      </g>
     </g>
     <g id="text_3">
      <!-- 4 -->
      <g transform="translate(44.0775 138.000166) scale(0.1 -0.1)">
       <defs>
        <path id="DejaVuSans-34" d="M 2419 4116 
L 825 1625 
L 2419 1625 
L 2419 4116 
z
M 2253 4666 
L 3047 4666 
L 3047 1625 
L 3713 1625 
L 3713 1100 
L 3047 1100 
L 3047 0 
L 2419 0 
L 2419 1100 
L 313 1100 
L 313 1709 
L 2253 4666 
z
" transform="scale(0.015625)"/>
       </defs>
       <use xlink:href="#DejaVuSans-34"/>
      </g>
     </g>
    </g>
    <g id="ytick_4">
     <g id="line2d_19">
      <path d="M 57.44 105.09183 
L 277.2 105.09183 
" clip-path="url(#p51d6ce5797)" style="fill: none; stroke: #b0b0b0; stroke-width: 0.8; stroke-linecap: square"/>
     </g>
     <g id="line2d_20">
      <g>
       <use xlink:href="#mdc6d310f6b" x="57.44" y="105.09183" style="stroke: #000000; stroke-width: 0.8"/>
      </g>
     </g>
     <g id="text_4">
      <!-- 6 -->
      <g transform="translate(44.0775 108.891049) scale(0.1 -0.1)">
       <defs>
        <path id="DejaVuSans-36" d="M 2113 2584 
Q 1688 2584 1439 2293 
Q 1191 2003 1191 1497 
Q 1191 994 1439 701 
Q 1688 409 2113 409 
Q 2538 409 2786 701 
Q 3034 994 3034 1497 
Q 3034 2003 2786 2293 
Q 2538 2584 2113 2584 
z
M 3366 4563 
L 3366 3988 
Q 3128 4100 2886 4159 
Q 2644 4219 2406 4219 
Q 1781 4219 1451 3797 
Q 1122 3375 1075 2522 
Q 1259 2794 1537 2939 
Q 1816 3084 2150 3084 
Q 2853 3084 3261 2657 
Q 3669 2231 3669 1497 
Q 3669 778 3244 343 
Q 2819 -91 2113 -91 
Q 1303 -91 875 529 
Q 447 1150 447 2328 
Q 447 3434 972 4092 
Q 1497 4750 2381 4750 
Q 2619 4750 2861 4703 
Q 3103 4656 3366 4563 
z
" transform="scale(0.015625)"/>
       </defs>
       <use xlink:href="#DejaVuSans-36"/>
      </g>
     </g>
    </g>
    <g id="ytick_5">
     <g id="line2d_21">
      <path d="M 57.44 75.982713 
L 277.2 75.982713 
" clip-path="url(#p51d6ce5797)" style="fill: none; stroke: #b0b0b0; stroke-width: 0.8; stroke-linecap: square"/>
     </g>
     <g id="line2d_22">
      <g>
       <use xlink:href="#mdc6d310f6b" x="57.44" y="75.982713" style="stroke: #000000; stroke-width: 0.8"/>
      </g>
     </g>
     <g id="text_5">
      <!-- 8 -->
      <g transform="translate(44.0775 79.781931) scale(0.1 -0.1)">
       <defs>
        <path id="DejaVuSans-38" d="M 2034 2216 
Q 1584 2216 1326 1975 
Q 1069 1734 1069 1313 
Q 1069 891 1326 650 
Q 1584 409 2034 409 
Q 2484 409 2743 651 
Q 3003 894 3003 1313 
Q 3003 1734 2745 1975 
Q 2488 2216 2034 2216 
z
M 1403 2484 
Q 997 2584 770 2862 
Q 544 3141 544 3541 
Q 544 4100 942 4425 
Q 1341 4750 2034 4750 
Q 2731 4750 3128 4425 
Q 3525 4100 3525 3541 
Q 3525 3141 3298 2862 
Q 3072 2584 2669 2484 
Q 3125 2378 3379 2068 
Q 3634 1759 3634 1313 
Q 3634 634 3220 271 
Q 2806 -91 2034 -91 
Q 1263 -91 848 271 
Q 434 634 434 1313 
Q 434 1759 690 2068 
Q 947 2378 1403 2484 
z
M 1172 3481 
Q 1172 3119 1398 2916 
Q 1625 2713 2034 2713 
Q 2441 2713 2670 2916 
Q 2900 3119 2900 3481 
Q 2900 3844 2670 4047 
Q 2441 4250 2034 4250 
Q 1625 4250 1398 4047 
Q 1172 3844 1172 3481 
z
" transform="scale(0.015625)"/>
       </defs>
       <use xlink:href="#DejaVuSans-38"/>
      </g>
     </g>
    </g>
    <g id="ytick_6">
     <g id="line2d_23">
      <path d="M 57.44 46.873595 
L 277.2 46.873595 
" clip-path="url(#p51d6ce5797)" style="fill: none; stroke: #b0b0b0; stroke-width: 0.8; stroke-linecap: square"/>
     </g>
     <g id="line2d_24">
      <g>
       <use xlink:href="#mdc6d310f6b" x="57.44" y="46.873595" style="stroke: #000000; stroke-width: 0.8"/>
      </g>
     </g>
     <g id="text_6">
      <!-- 10 -->
      <g transform="translate(37.715 50.672814) scale(0.1 -0.1)">
       <defs>
        <path id="DejaVuSans-31" d="M 794 531 
L 1825 531 
L 1825 4091 
L 703 3866 
L 703 4441 
L 1819 4666 
L 2450 4666 
L 2450 531 
L 3481 531 
L 3481 0 
L 794 0 
L 794 531 
z
" transform="scale(0.015625)"/>
       </defs>
       <use xlink:href="#DejaVuSans-31"/>
       <use xlink:href="#DejaVuSans-30" transform="translate(63.623047 0)"/>
      </g>
     </g>
    </g>
    <g id="text_7">
     <!-- Radial distribution function $ P(r) = 4 \pi r^2 \rho(r) $ -->
     <g transform="translate(20.057187 217.941) rotate(-90) scale(0.1 -0.1)">
      <defs>
       <path id="DejaVuSans-52" d="M 2841 2188 
Q 3044 2119 3236 1894 
Q 3428 1669 3622 1275 
L 4263 0 
L 3584 0 
L 2988 1197 
Q 2756 1666 2539 1819 
Q 2322 1972 1947 1972 
L 1259 1972 
L 1259 0 
L 628 0 
L 628 4666 
L 2053 4666 
Q 2853 4666 3247 4331 
Q 3641 3997 3641 3322 
Q 3641 2881 3436 2590 
Q 3231 2300 2841 2188 
z
M 1259 4147 
L 1259 2491 
L 2053 2491 
Q 2509 2491 2742 2702 
Q 2975 2913 2975 3322 
Q 2975 3731 2742 3939 
Q 2509 4147 2053 4147 
L 1259 4147 
z
" transform="scale(0.015625)"/>
       <path id="DejaVuSans-61" d="M 2194 1759 
Q 1497 1759 1228 1600 
Q 959 1441 959 1056 
Q 959 750 1161 570 
Q 1363 391 1709 391 
Q 2188 391 2477 730 
Q 2766 1069 2766 1631 
L 2766 1759 
L 2194 1759 
z
M 3341 1997 
L 3341 0 
L 2766 0 
L 2766 531 
Q 2569 213 2275 61 
Q 1981 -91 1556 -91 
Q 1019 -91 701 211 
Q 384 513 384 1019 
Q 384 1609 779 1909 
Q 1175 2209 1959 2209 
L 2766 2209 
L 2766 2266 
Q 2766 2663 2505 2880 
Q 2244 3097 1772 3097 
Q 1472 3097 1187 3025 
Q 903 2953 641 2809 
L 641 3341 
Q 956 3463 1253 3523 
Q 1550 3584 1831 3584 
Q 2591 3584 2966 3190 
Q 3341 2797 3341 1997 
z
" transform="scale(0.015625)"/>
       <path id="DejaVuSans-64" d="M 2906 2969 
L 2906 4863 
L 3481 4863 
L 3481 0 
L 2906 0 
L 2906 525 
Q 2725 213 2448 61 
Q 2172 -91 1784 -91 
Q 1150 -91 751 415 
Q 353 922 353 1747 
Q 353 2572 751 3078 
Q 1150 3584 1784 3584 
Q 2172 3584 2448 3432 
Q 2725 3281 2906 2969 
z
M 947 1747 
Q 947 1113 1208 752 
Q 1469 391 1925 391 
Q 2381 391 2643 752 
Q 2906 1113 2906 1747 
Q 2906 2381 2643 2742 
Q 2381 3103 1925 3103 
Q 1469 3103 1208 2742 
Q 947 2381 947 1747 
z
" transform="scale(0.015625)"/>
       <path id="DejaVuSans-69" d="M 603 3500 
L 1178 3500 
L 1178 0 
L 603 0 
L 603 3500 
z
M 603 4863 
L 1178 4863 
L 1178 4134 
L 603 4134 
L 603 4863 
z
" transform="scale(0.015625)"/>
       <path id="DejaVuSans-6c" d="M 603 4863 
L 1178 4863 
L 1178 0 
L 603 0 
L 603 4863 
z
" transform="scale(0.015625)"/>
       <path id="DejaVuSans-20" transform="scale(0.015625)"/>
       <path id="DejaVuSans-73" d="M 2834 3397 
L 2834 2853 
Q 2591 2978 2328 3040 
Q 2066 3103 1784 3103 
Q 1356 3103 1142 2972 
Q 928 2841 928 2578 
Q 928 2378 1081 2264 
Q 1234 2150 1697 2047 
L 1894 2003 
Q 2506 1872 2764 1633 
Q 3022 1394 3022 966 
Q 3022 478 2636 193 
Q 2250 -91 1575 -91 
Q 1294 -91 989 -36 
Q 684 19 347 128 
L 347 722 
Q 666 556 975 473 
Q 1284 391 1588 391 
Q 1994 391 2212 530 
Q 2431 669 2431 922 
Q 2431 1156 2273 1281 
Q 2116 1406 1581 1522 
L 1381 1569 
Q 847 1681 609 1914 
Q 372 2147 372 2553 
Q 372 3047 722 3315 
Q 1072 3584 1716 3584 
Q 2034 3584 2315 3537 
Q 2597 3491 2834 3397 
z
" transform="scale(0.015625)"/>
       <path id="DejaVuSans-74" d="M 1172 4494 
L 1172 3500 
L 2356 3500 
L 2356 3053 
L 1172 3053 
L 1172 1153 
Q 1172 725 1289 603 
Q 1406 481 1766 481 
L 2356 481 
L 2356 0 
L 1766 0 
Q 1100 0 847 248 
Q 594 497 594 1153 
L 594 3053 
L 172 3053 
L 172 3500 
L 594 3500 
L 594 4494 
L 1172 4494 
z
" transform="scale(0.015625)"/>
       <path id="DejaVuSans-72" d="M 2631 2963 
Q 2534 3019 2420 3045 
Q 2306 3072 2169 3072 
Q 1681 3072 1420 2755 
Q 1159 2438 1159 1844 
L 1159 0 
L 581 0 
L 581 3500 
L 1159 3500 
L 1159 2956 
Q 1341 3275 1631 3429 
Q 1922 3584 2338 3584 
Q 2397 3584 2469 3576 
Q 2541 3569 2628 3553 
L 2631 2963 
z
" transform="scale(0.015625)"/>
       <path id="DejaVuSans-62" d="M 3116 1747 
Q 3116 2381 2855 2742 
Q 2594 3103 2138 3103 
Q 1681 3103 1420 2742 
Q 1159 2381 1159 1747 
Q 1159 1113 1420 752 
Q 1681 391 2138 391 
Q 2594 391 2855 752 
Q 3116 1113 3116 1747 
z
M 1159 2969 
Q 1341 3281 1617 3432 
Q 1894 3584 2278 3584 
Q 2916 3584 3314 3078 
Q 3713 2572 3713 1747 
Q 3713 922 3314 415 
Q 2916 -91 2278 -91 
Q 1894 -91 1617 61 
Q 1341 213 1159 525 
L 1159 0 
L 581 0 
L 581 4863 
L 1159 4863 
L 1159 2969 
z
" transform="scale(0.015625)"/>
       <path id="DejaVuSans-75" d="M 544 1381 
L 544 3500 
L 1119 3500 
L 1119 1403 
Q 1119 906 1312 657 
Q 1506 409 1894 409 
Q 2359 409 2629 706 
Q 2900 1003 2900 1516 
L 2900 3500 
L 3475 3500 
L 3475 0 
L 2900 0 
L 2900 538 
Q 2691 219 2414 64 
Q 2138 -91 1772 -91 
Q 1169 -91 856 284 
Q 544 659 544 1381 
z
M 1991 3584 
L 1991 3584 
z
" transform="scale(0.015625)"/>
       <path id="DejaVuSans-6f" d="M 1959 3097 
Q 1497 3097 1228 2736 
Q 959 2375 959 1747 
Q 959 1119 1226 758 
Q 1494 397 1959 397 
Q 2419 397 2687 759 
Q 2956 1122 2956 1747 
Q 2956 2369 2687 2733 
Q 2419 3097 1959 3097 
z
M 1959 3584 
Q 2709 3584 3137 3096 
Q 3566 2609 3566 1747 
Q 3566 888 3137 398 
Q 2709 -91 1959 -91 
Q 1206 -91 779 398 
Q 353 888 353 1747 
Q 353 2609 779 3096 
Q 1206 3584 1959 3584 
z
" transform="scale(0.015625)"/>
       <path id="DejaVuSans-6e" d="M 3513 2113 
L 3513 0 
L 2938 0 
L 2938 2094 
Q 2938 2591 2744 2837 
Q 2550 3084 2163 3084 
Q 1697 3084 1428 2787 
Q 1159 2491 1159 1978 
L 1159 0 
L 581 0 
L 581 3500 
L 1159 3500 
L 1159 2956 
Q 1366 3272 1645 3428 
Q 1925 3584 2291 3584 
Q 2894 3584 3203 3211 
Q 3513 2838 3513 2113 
z
" transform="scale(0.015625)"/>
       <path id="DejaVuSans-66" d="M 2375 4863 
L 2375 4384 
L 1825 4384 
Q 1516 4384 1395 4259 
Q 1275 4134 1275 3809 
L 1275 3500 
L 2222 3500 
L 2222 3053 
L 1275 3053 
L 1275 0 
L 697 0 
L 697 3053 
L 147 3053 
L 147 3500 
L 697 3500 
L 697 3744 
Q 697 4328 969 4595 
Q 1241 4863 1831 4863 
L 2375 4863 
z
" transform="scale(0.015625)"/>
       <path id="DejaVuSans-63" d="M 3122 3366 
L 3122 2828 
Q 2878 2963 2633 3030 
Q 2388 3097 2138 3097 
Q 1578 3097 1268 2742 
Q 959 2388 959 1747 
Q 959 1106 1268 751 
Q 1578 397 2138 397 
Q 2388 397 2633 464 
Q 2878 531 3122 666 
L 3122 134 
Q 2881 22 2623 -34 
Q 2366 -91 2075 -91 
Q 1284 -91 818 406 
Q 353 903 353 1747 
Q 353 2603 823 3093 
Q 1294 3584 2113 3584 
Q 2378 3584 2631 3529 
Q 2884 3475 3122 3366 
z
" transform="scale(0.015625)"/>
       <path id="DejaVuSans-Oblique-50" d="M 1081 4666 
L 2541 4666 
Q 3178 4666 3512 4369 
Q 3847 4072 3847 3500 
Q 3847 2731 3353 2303 
Q 2859 1875 1966 1875 
L 1172 1875 
L 806 0 
L 172 0 
L 1081 4666 
z
M 1613 4147 
L 1275 2394 
L 2069 2394 
Q 2606 2394 2893 2669 
Q 3181 2944 3181 3456 
Q 3181 3784 2986 3965 
Q 2791 4147 2438 4147 
L 1613 4147 
z
" transform="scale(0.015625)"/>
       <path id="DejaVuSans-28" d="M 1984 4856 
Q 1566 4138 1362 3434 
Q 1159 2731 1159 2009 
Q 1159 1288 1364 580 
Q 1569 -128 1984 -844 
L 1484 -844 
Q 1016 -109 783 600 
Q 550 1309 550 2009 
Q 550 2706 781 3412 
Q 1013 4119 1484 4856 
L 1984 4856 
z
" transform="scale(0.015625)"/>
       <path id="DejaVuSans-Oblique-72" d="M 2853 2969 
Q 2766 3016 2653 3041 
Q 2541 3066 2413 3066 
Q 1953 3066 1609 2717 
Q 1266 2369 1153 1784 
L 800 0 
L 225 0 
L 909 3500 
L 1484 3500 
L 1375 2956 
Q 1603 3259 1920 3421 
Q 2238 3584 2597 3584 
Q 2691 3584 2781 3573 
Q 2872 3563 2963 3538 
L 2853 2969 
z
" transform="scale(0.015625)"/>
       <path id="DejaVuSans-29" d="M 513 4856 
L 1013 4856 
Q 1481 4119 1714 3412 
Q 1947 2706 1947 2009 
Q 1947 1309 1714 600 
Q 1481 -109 1013 -844 
L 513 -844 
Q 928 -128 1133 580 
Q 1338 1288 1338 2009 
Q 1338 2731 1133 3434 
Q 928 4138 513 4856 
z
" transform="scale(0.015625)"/>
       <path id="DejaVuSans-3d" d="M 678 2906 
L 4684 2906 
L 4684 2381 
L 678 2381 
L 678 2906 
z
M 678 1631 
L 4684 1631 
L 4684 1100 
L 678 1100 
L 678 1631 
z
" transform="scale(0.015625)"/>
       <path id="DejaVuSans-Oblique-3c0" d="M 584 3500 
L 3938 3500 
L 3825 2925 
L 3384 2925 
L 2966 775 
Q 2922 550 2981 450 
Q 3038 353 3209 353 
Q 3256 353 3325 363 
Q 3397 369 3419 372 
L 3338 -44 
Q 3222 -84 3103 -103 
Q 2981 -122 2866 -122 
Q 2491 -122 2388 81 
Q 2284 288 2391 838 
L 2797 2925 
L 1506 2925 
L 938 0 
L 350 0 
L 919 2925 
L 472 2925 
L 584 3500 
z
" transform="scale(0.015625)"/>
       <path id="DejaVuSans-Oblique-3c1" d="M 1203 2875 
Q 1453 3194 1981 3475 
Q 2188 3584 2756 3584 
Q 3394 3584 3694 3078 
Q 3994 2572 3834 1747 
Q 3672 922 3175 415 
Q 2678 -91 2041 -91 
Q 1656 -91 1409 63 
Q 1163 213 1044 525 
L 681 -1331 
L 103 -1331 
L 697 1716 
Q 838 2438 1203 2875 
z
M 3238 1747 
Q 3359 2381 3169 2744 
Q 2978 3103 2522 3103 
Q 2066 3103 1734 2744 
Q 1403 2381 1281 1747 
Q 1156 1113 1347 750 
Q 1538 391 1994 391 
Q 2450 391 2781 750 
Q 3113 1113 3238 1747 
z
" transform="scale(0.015625)"/>
      </defs>
      <use xlink:href="#DejaVuSans-52" transform="translate(0 0.765625)"/>
      <use xlink:href="#DejaVuSans-61" transform="translate(69.482422 0.765625)"/>
      <use xlink:href="#DejaVuSans-64" transform="translate(130.761719 0.765625)"/>
      <use xlink:href="#DejaVuSans-69" transform="translate(194.238281 0.765625)"/>
      <use xlink:href="#DejaVuSans-61" transform="translate(222.021484 0.765625)"/>
      <use xlink:href="#DejaVuSans-6c" transform="translate(283.300781 0.765625)"/>
      <use xlink:href="#DejaVuSans-20" transform="translate(311.083984 0.765625)"/>
      <use xlink:href="#DejaVuSans-64" transform="translate(342.871094 0.765625)"/>
      <use xlink:href="#DejaVuSans-69" transform="translate(406.347656 0.765625)"/>
      <use xlink:href="#DejaVuSans-73" transform="translate(434.130859 0.765625)"/>
      <use xlink:href="#DejaVuSans-74" transform="translate(486.230469 0.765625)"/>
      <use xlink:href="#DejaVuSans-72" transform="translate(525.439453 0.765625)"/>
      <use xlink:href="#DejaVuSans-69" transform="translate(566.552734 0.765625)"/>
      <use xlink:href="#DejaVuSans-62" transform="translate(594.335938 0.765625)"/>
      <use xlink:href="#DejaVuSans-75" transform="translate(657.8125 0.765625)"/>
      <use xlink:href="#DejaVuSans-74" transform="translate(721.191406 0.765625)"/>
      <use xlink:href="#DejaVuSans-69" transform="translate(760.400391 0.765625)"/>
      <use xlink:href="#DejaVuSans-6f" transform="translate(788.183594 0.765625)"/>
      <use xlink:href="#DejaVuSans-6e" transform="translate(849.365234 0.765625)"/>
      <use xlink:href="#DejaVuSans-20" transform="translate(912.744141 0.765625)"/>
      <use xlink:href="#DejaVuSans-66" transform="translate(944.53125 0.765625)"/>
      <use xlink:href="#DejaVuSans-75" transform="translate(979.736328 0.765625)"/>
      <use xlink:href="#DejaVuSans-6e" transform="translate(1043.115234 0.765625)"/>
      <use xlink:href="#DejaVuSans-63" transform="translate(1106.494141 0.765625)"/>
      <use xlink:href="#DejaVuSans-74" transform="translate(1161.474609 0.765625)"/>
      <use xlink:href="#DejaVuSans-69" transform="translate(1200.683594 0.765625)"/>
      <use xlink:href="#DejaVuSans-6f" transform="translate(1228.466797 0.765625)"/>
      <use xlink:href="#DejaVuSans-6e" transform="translate(1289.648438 0.765625)"/>
      <use xlink:href="#DejaVuSans-20" transform="translate(1353.027344 0.765625)"/>
      <use xlink:href="#DejaVuSans-Oblique-50" transform="translate(1384.814453 0.765625)"/>
      <use xlink:href="#DejaVuSans-28" transform="translate(1445.117188 0.765625)"/>
      <use xlink:href="#DejaVuSans-Oblique-72" transform="translate(1484.130859 0.765625)"/>
      <use xlink:href="#DejaVuSans-29" transform="translate(1525.244141 0.765625)"/>
      <use xlink:href="#DejaVuSans-3d" transform="translate(1583.740234 0.765625)"/>
      <use xlink:href="#DejaVuSans-34" transform="translate(1687.011719 0.765625)"/>
      <use xlink:href="#DejaVuSans-Oblique-3c0" transform="translate(1750.634766 0.765625)"/>
      <use xlink:href="#DejaVuSans-Oblique-72" transform="translate(1810.839844 0.765625)"/>
      <use xlink:href="#DejaVuSans-32" transform="translate(1856.603021 39.046875) scale(0.7)"/>
      <use xlink:href="#DejaVuSans-Oblique-3c1" transform="translate(1903.873529 0.765625)"/>
      <use xlink:href="#DejaVuSans-28" transform="translate(1967.350091 0.765625)"/>
      <use xlink:href="#DejaVuSans-Oblique-72" transform="translate(2006.363763 0.765625)"/>
      <use xlink:href="#DejaVuSans-29" transform="translate(2047.477044 0.765625)"/>
     </g>
    </g>
   </g>
   <g id="line2d_25">
    <path d="M 61.67038 192.418062 
L 61.715498 192.269522 
L 61.825703 190.933805 
L 62.036536 185.17351 
L 62.411654 167.827731 
L 64.563861 56.526109 
L 65.101775 43.313223 
L 65.538468 37.293931 
L 65.872903 35.155012 
L 66.091344 34.762818 
L 66.215238 34.85596 
L 66.407613 35.411437 
L 66.699939 37.104282 
L 67.134685 41.169208 
L 67.773306 49.490423 
L 69.144061 71.119066 
L 70.450986 90.192815 
L 71.387001 100.815224 
L 72.17806 107.455604 
L 72.877631 111.573802 
L 73.459802 113.836053 
L 73.958539 115.011143 
L 74.360983 115.49607 
L 74.716405 115.613224 
L 75.020179 115.503017 
L 75.394057 115.126861 
L 75.908894 114.226726 
L 76.579676 112.503203 
L 77.426445 109.658736 
L 78.708978 104.492357 
L 82.153621 90.27151 
L 83.416739 86.088193 
L 84.546168 83.073186 
L 85.513733 81.071481 
L 86.408088 79.702252 
L 87.21812 78.85288 
L 87.933508 78.400675 
L 88.668924 78.213879 
L 89.297476 78.266325 
L 90.07108 78.583085 
L 90.866344 79.178659 
L 91.822335 80.224888 
L 92.809625 81.643986 
L 93.977597 83.708808 
L 95.344005 86.568938 
L 97.092773 90.776045 
L 99.450426 97.11586 
L 103.284333 108.203095 
L 108.574318 123.368596 
L 111.696071 131.659735 
L 114.536699 138.608942 
L 117.282075 144.741531 
L 119.901386 150.052327 
L 122.364075 154.577083 
L 124.930908 158.833376 
L 127.303523 162.376158 
L 129.765118 165.683436 
L 132.31903 168.750586 
L 134.968721 171.576604 
L 137.717784 174.163727 
L 140.569944 176.517042 
L 143.529069 178.644065 
L 146.59917 180.554332 
L 149.784409 182.258988 
L 153.089104 183.770404 
L 156.517734 185.10181 
L 160.528879 186.401608 
L 164.70965 187.510893 
L 169.56263 188.54405 
L 174.644168 189.392826 
L 180.510706 190.143427 
L 187.258534 190.77879 
L 195.616746 191.324876 
L 205.852228 191.752005 
L 219.027478 192.065886 
L 238.214921 192.278971 
L 271.953944 192.391493 
L 277.84145 192.398314 
L 277.84145 192.398314 
" clip-path="url(#p51d6ce5797)" style="fill: none; stroke: #1f77b4; stroke-width: 1.5; stroke-linecap: square"/>
   </g>
   <g id="patch_3">
    <path d="M 57.44 200.302 
L 57.44 26.88 
" style="fill: none; stroke: #000000; stroke-width: 0.8; stroke-linejoin: miter; stroke-linecap: square"/>
   </g>
   <g id="patch_4">
    <path d="M 277.2 200.302 
L 277.2 26.88 
" style="fill: none; stroke: #000000; stroke-width: 0.8; stroke-linejoin: miter; stroke-linecap: square"/>
   </g>
   <g id="patch_5">
    <path d="M 57.44 200.302 
L 277.2 200.302 
" style="fill: none; stroke: #000000; stroke-width: 0.8; stroke-linejoin: miter; stroke-linecap: square"/>
   </g>
   <g id="patch_6">
    <path d="M 57.44 26.88 
L 277.2 26.88 
" style="fill: none; stroke: #000000; stroke-width: 0.8; stroke-linejoin: miter; stroke-linecap: square"/>
   </g>
   <g id="text_8">
    <!-- Ne (Z=10) -->
    <g transform="translate(135.777812 20.88) scale(0.12 -0.12)">
     <defs>
      <path id="DejaVuSans-4e" d="M 628 4666 
L 1478 4666 
L 3547 763 
L 3547 4666 
L 4159 4666 
L 4159 0 
L 3309 0 
L 1241 3903 
L 1241 0 
L 628 0 
L 628 4666 
z
" transform="scale(0.015625)"/>
      <path id="DejaVuSans-65" d="M 3597 1894 
L 3597 1613 
L 953 1613 
Q 991 1019 1311 708 
Q 1631 397 2203 397 
Q 2534 397 2845 478 
Q 3156 559 3463 722 
L 3463 178 
Q 3153 47 2828 -22 
Q 2503 -91 2169 -91 
Q 1331 -91 842 396 
Q 353 884 353 1716 
Q 353 2575 817 3079 
Q 1281 3584 2069 3584 
Q 2775 3584 3186 3129 
Q 3597 2675 3597 1894 
z
M 3022 2063 
Q 3016 2534 2758 2815 
Q 2500 3097 2075 3097 
Q 1594 3097 1305 2825 
Q 1016 2553 972 2059 
L 3022 2063 
z
" transform="scale(0.015625)"/>
      <path id="DejaVuSans-5a" d="M 359 4666 
L 4025 4666 
L 4025 4184 
L 1075 531 
L 4097 531 
L 4097 0 
L 288 0 
L 288 481 
L 3238 4134 
L 359 4134 
L 359 4666 
z
" transform="scale(0.015625)"/>
     </defs>
     <use xlink:href="#DejaVuSans-4e"/>
     <use xlink:href="#DejaVuSans-65" transform="translate(74.804688 0)"/>
     <use xlink:href="#DejaVuSans-20" transform="translate(136.328125 0)"/>
     <use xlink:href="#DejaVuSans-28" transform="translate(168.115234 0)"/>
     <use xlink:href="#DejaVuSans-5a" transform="translate(207.128906 0)"/>
     <use xlink:href="#DejaVuSans-3d" transform="translate(275.634766 0)"/>
     <use xlink:href="#DejaVuSans-31" transform="translate(359.423828 0)"/>
     <use xlink:href="#DejaVuSans-30" transform="translate(423.046875 0)"/>
     <use xlink:href="#DejaVuSans-29" transform="translate(486.669922 0)"/>
    </g>
   </g>
  </g>
  <g id="axes_2">
   <g id="patch_7">
    <path d="M 57.44 388.024 
L 277.2 388.024 
L 277.2 214.602 
L 57.44 214.602 
z
" style="fill: #ffffff"/>
   </g>
   <g id="matplotlib.axis_3">
    <g id="xtick_7">
     <g id="line2d_26">
      <path d="M 61.666154 388.024 
L 61.666154 214.602 
" clip-path="url(#pcd3c988bd4)" style="fill: none; stroke: #b0b0b0; stroke-width: 0.8; stroke-linecap: square"/>
     </g>
     <g id="line2d_27">
      <g>
       <use xlink:href="#m6f4efc9d4d" x="61.666154" y="388.024" style="stroke: #000000; stroke-width: 0.8"/>
      </g>
     </g>
     <g id="text_9">
      <!-- 0 -->
      <g transform="translate(58.484904 402.622437) scale(0.1 -0.1)">
       <use xlink:href="#DejaVuSans-30"/>
      </g>
     </g>
    </g>
    <g id="xtick_8">
     <g id="line2d_28">
      <path d="M 103.927692 388.024 
L 103.927692 214.602 
" clip-path="url(#pcd3c988bd4)" style="fill: none; stroke: #b0b0b0; stroke-width: 0.8; stroke-linecap: square"/>
     </g>
     <g id="line2d_29">
      <g>
       <use xlink:href="#m6f4efc9d4d" x="103.927692" y="388.024" style="stroke: #000000; stroke-width: 0.8"/>
      </g>
     </g>
     <g id="text_10">
      <!-- 1 -->
      <g transform="translate(100.746442 402.622437) scale(0.1 -0.1)">
       <use xlink:href="#DejaVuSans-31"/>
      </g>
     </g>
    </g>
    <g id="xtick_9">
     <g id="line2d_30">
      <path d="M 146.189231 388.024 
L 146.189231 214.602 
" clip-path="url(#pcd3c988bd4)" style="fill: none; stroke: #b0b0b0; stroke-width: 0.8; stroke-linecap: square"/>
     </g>
     <g id="line2d_31">
      <g>
       <use xlink:href="#m6f4efc9d4d" x="146.189231" y="388.024" style="stroke: #000000; stroke-width: 0.8"/>
      </g>
     </g>
     <g id="text_11">
      <!-- 2 -->
      <g transform="translate(143.007981 402.622437) scale(0.1 -0.1)">
       <use xlink:href="#DejaVuSans-32"/>
      </g>
     </g>
    </g>
    <g id="xtick_10">
     <g id="line2d_32">
      <path d="M 188.450769 388.024 
L 188.450769 214.602 
" clip-path="url(#pcd3c988bd4)" style="fill: none; stroke: #b0b0b0; stroke-width: 0.8; stroke-linecap: square"/>
     </g>
     <g id="line2d_33">
      <g>
       <use xlink:href="#m6f4efc9d4d" x="188.450769" y="388.024" style="stroke: #000000; stroke-width: 0.8"/>
      </g>
     </g>
     <g id="text_12">
      <!-- 3 -->
      <g transform="translate(185.269519 402.622437) scale(0.1 -0.1)">
       <defs>
        <path id="DejaVuSans-33" d="M 2597 2516 
Q 3050 2419 3304 2112 
Q 3559 1806 3559 1356 
Q 3559 666 3084 287 
Q 2609 -91 1734 -91 
Q 1441 -91 1130 -33 
Q 819 25 488 141 
L 488 750 
Q 750 597 1062 519 
Q 1375 441 1716 441 
Q 2309 441 2620 675 
Q 2931 909 2931 1356 
Q 2931 1769 2642 2001 
Q 2353 2234 1838 2234 
L 1294 2234 
L 1294 2753 
L 1863 2753 
Q 2328 2753 2575 2939 
Q 2822 3125 2822 3475 
Q 2822 3834 2567 4026 
Q 2313 4219 1838 4219 
Q 1578 4219 1281 4162 
Q 984 4106 628 3988 
L 628 4550 
Q 988 4650 1302 4700 
Q 1616 4750 1894 4750 
Q 2613 4750 3031 4423 
Q 3450 4097 3450 3541 
Q 3450 3153 3228 2886 
Q 3006 2619 2597 2516 
z
" transform="scale(0.015625)"/>
       </defs>
       <use xlink:href="#DejaVuSans-33"/>
      </g>
     </g>
    </g>
    <g id="xtick_11">
     <g id="line2d_34">
      <path d="M 230.712308 388.024 
L 230.712308 214.602 
" clip-path="url(#pcd3c988bd4)" style="fill: none; stroke: #b0b0b0; stroke-width: 0.8; stroke-linecap: square"/>
     </g>
     <g id="line2d_35">
      <g>
       <use xlink:href="#m6f4efc9d4d" x="230.712308" y="388.024" style="stroke: #000000; stroke-width: 0.8"/>
      </g>
     </g>
     <g id="text_13">
      <!-- 4 -->
      <g transform="translate(227.531058 402.622437) scale(0.1 -0.1)">
       <use xlink:href="#DejaVuSans-34"/>
      </g>
     </g>
    </g>
    <g id="xtick_12">
     <g id="line2d_36">
      <path d="M 272.973846 388.024 
L 272.973846 214.602 
" clip-path="url(#pcd3c988bd4)" style="fill: none; stroke: #b0b0b0; stroke-width: 0.8; stroke-linecap: square"/>
     </g>
     <g id="line2d_37">
      <g>
       <use xlink:href="#m6f4efc9d4d" x="272.973846" y="388.024" style="stroke: #000000; stroke-width: 0.8"/>
      </g>
     </g>
     <g id="text_14">
      <!-- 5 -->
      <g transform="translate(269.792596 402.622437) scale(0.1 -0.1)">
       <defs>
        <path id="DejaVuSans-35" d="M 691 4666 
L 3169 4666 
L 3169 4134 
L 1269 4134 
L 1269 2991 
Q 1406 3038 1543 3061 
Q 1681 3084 1819 3084 
Q 2600 3084 3056 2656 
Q 3513 2228 3513 1497 
Q 3513 744 3044 326 
Q 2575 -91 1722 -91 
Q 1428 -91 1123 -41 
Q 819 9 494 109 
L 494 744 
Q 775 591 1075 516 
Q 1375 441 1709 441 
Q 2250 441 2565 725 
Q 2881 1009 2881 1497 
Q 2881 1984 2565 2268 
Q 2250 2553 1709 2553 
Q 1456 2553 1204 2497 
Q 953 2441 691 2322 
L 691 4666 
z
" transform="scale(0.015625)"/>
       </defs>
       <use xlink:href="#DejaVuSans-35"/>
      </g>
     </g>
    </g>
    <g id="text_15">
     <!-- r [$a_0$] -->
     <g transform="translate(154.32 416.300563) scale(0.1 -0.1)">
      <defs>
       <path id="DejaVuSans-5b" d="M 550 4863 
L 1875 4863 
L 1875 4416 
L 1125 4416 
L 1125 -397 
L 1875 -397 
L 1875 -844 
L 550 -844 
L 550 4863 
z
" transform="scale(0.015625)"/>
       <path id="DejaVuSans-Oblique-61" d="M 3438 1997 
L 3047 0 
L 2472 0 
L 2578 531 
Q 2325 219 2001 64 
Q 1678 -91 1281 -91 
Q 834 -91 548 182 
Q 263 456 263 884 
Q 263 1497 752 1853 
Q 1241 2209 2100 2209 
L 2900 2209 
L 2931 2363 
Q 2938 2388 2941 2417 
Q 2944 2447 2944 2509 
Q 2944 2788 2717 2942 
Q 2491 3097 2081 3097 
Q 1800 3097 1504 3025 
Q 1209 2953 897 2809 
L 997 3341 
Q 1322 3463 1633 3523 
Q 1944 3584 2234 3584 
Q 2853 3584 3176 3315 
Q 3500 3047 3500 2534 
Q 3500 2431 3484 2292 
Q 3469 2153 3438 1997 
z
M 2816 1759 
L 2241 1759 
Q 1534 1759 1195 1570 
Q 856 1381 856 984 
Q 856 709 1029 553 
Q 1203 397 1509 397 
Q 1978 397 2328 733 
Q 2678 1069 2791 1631 
L 2816 1759 
z
" transform="scale(0.015625)"/>
       <path id="DejaVuSans-5d" d="M 1947 4863 
L 1947 -844 
L 622 -844 
L 622 -397 
L 1369 -397 
L 1369 4416 
L 622 4416 
L 622 4863 
L 1947 4863 
z
" transform="scale(0.015625)"/>
      </defs>
      <use xlink:href="#DejaVuSans-72" transform="translate(0 0.015625)"/>
      <use xlink:href="#DejaVuSans-20" transform="translate(41.113281 0.015625)"/>
      <use xlink:href="#DejaVuSans-5b" transform="translate(72.900391 0.015625)"/>
      <use xlink:href="#DejaVuSans-Oblique-61" transform="translate(111.914062 0.015625)"/>
      <use xlink:href="#DejaVuSans-30" transform="translate(173.193359 -16.390625) scale(0.7)"/>
      <use xlink:href="#DejaVuSans-5d" transform="translate(220.463867 0.015625)"/>
     </g>
    </g>
   </g>
   <g id="matplotlib.axis_4">
    <g id="ytick_7">
     <g id="line2d_38">
      <path d="M 57.44 381.293377 
L 277.2 381.293377 
" clip-path="url(#pcd3c988bd4)" style="fill: none; stroke: #b0b0b0; stroke-width: 0.8; stroke-linecap: square"/>
     </g>
     <g id="line2d_39">
      <g>
       <use xlink:href="#mdc6d310f6b" x="57.44" y="381.293377" style="stroke: #000000; stroke-width: 0.8"/>
      </g>
     </g>
     <g id="text_16">
      <!-- −0.5 -->
      <g transform="translate(26.157188 385.092596) scale(0.1 -0.1)">
       <defs>
        <path id="DejaVuSans-2212" d="M 678 2272 
L 4684 2272 
L 4684 1741 
L 678 1741 
L 678 2272 
z
" transform="scale(0.015625)"/>
        <path id="DejaVuSans-2e" d="M 684 794 
L 1344 794 
L 1344 0 
L 684 0 
L 684 794 
z
" transform="scale(0.015625)"/>
       </defs>
       <use xlink:href="#DejaVuSans-2212"/>
       <use xlink:href="#DejaVuSans-30" transform="translate(83.789062 0)"/>
       <use xlink:href="#DejaVuSans-2e" transform="translate(147.412109 0)"/>
       <use xlink:href="#DejaVuSans-35" transform="translate(179.199219 0)"/>
      </g>
     </g>
    </g>
    <g id="ytick_8">
     <g id="line2d_40">
      <path d="M 57.44 352.610806 
L 277.2 352.610806 
" clip-path="url(#pcd3c988bd4)" style="fill: none; stroke: #b0b0b0; stroke-width: 0.8; stroke-linecap: square"/>
     </g>
     <g id="line2d_41">
      <g>
       <use xlink:href="#mdc6d310f6b" x="57.44" y="352.610806" style="stroke: #000000; stroke-width: 0.8"/>
      </g>
     </g>
     <g id="text_17">
      <!-- 0.0 -->
      <g transform="translate(34.536875 356.410024) scale(0.1 -0.1)">
       <use xlink:href="#DejaVuSans-30"/>
       <use xlink:href="#DejaVuSans-2e" transform="translate(63.623047 0)"/>
       <use xlink:href="#DejaVuSans-30" transform="translate(95.410156 0)"/>
      </g>
     </g>
    </g>
    <g id="ytick_9">
     <g id="line2d_42">
      <path d="M 57.44 323.928234 
L 277.2 323.928234 
" clip-path="url(#pcd3c988bd4)" style="fill: none; stroke: #b0b0b0; stroke-width: 0.8; stroke-linecap: square"/>
     </g>
     <g id="line2d_43">
      <g>
       <use xlink:href="#mdc6d310f6b" x="57.44" y="323.928234" style="stroke: #000000; stroke-width: 0.8"/>
      </g>
     </g>
     <g id="text_18">
      <!-- 0.5 -->
      <g transform="translate(34.536875 327.727453) scale(0.1 -0.1)">
       <use xlink:href="#DejaVuSans-30"/>
       <use xlink:href="#DejaVuSans-2e" transform="translate(63.623047 0)"/>
       <use xlink:href="#DejaVuSans-35" transform="translate(95.410156 0)"/>
      </g>
     </g>
    </g>
    <g id="ytick_10">
     <g id="line2d_44">
      <path d="M 57.44 295.245662 
L 277.2 295.245662 
" clip-path="url(#pcd3c988bd4)" style="fill: none; stroke: #b0b0b0; stroke-width: 0.8; stroke-linecap: square"/>
     </g>
     <g id="line2d_45">
      <g>
       <use xlink:href="#mdc6d310f6b" x="57.44" y="295.245662" style="stroke: #000000; stroke-width: 0.8"/>
      </g>
     </g>
     <g id="text_19">
      <!-- 1.0 -->
      <g transform="translate(34.536875 299.044881) scale(0.1 -0.1)">
       <use xlink:href="#DejaVuSans-31"/>
       <use xlink:href="#DejaVuSans-2e" transform="translate(63.623047 0)"/>
       <use xlink:href="#DejaVuSans-30" transform="translate(95.410156 0)"/>
      </g>
     </g>
    </g>
    <g id="ytick_11">
     <g id="line2d_46">
      <path d="M 57.44 266.563091 
L 277.2 266.563091 
" clip-path="url(#pcd3c988bd4)" style="fill: none; stroke: #b0b0b0; stroke-width: 0.8; stroke-linecap: square"/>
     </g>
     <g id="line2d_47">
      <g>
       <use xlink:href="#mdc6d310f6b" x="57.44" y="266.563091" style="stroke: #000000; stroke-width: 0.8"/>
      </g>
     </g>
     <g id="text_20">
      <!-- 1.5 -->
      <g transform="translate(34.536875 270.362309) scale(0.1 -0.1)">
       <use xlink:href="#DejaVuSans-31"/>
       <use xlink:href="#DejaVuSans-2e" transform="translate(63.623047 0)"/>
       <use xlink:href="#DejaVuSans-35" transform="translate(95.410156 0)"/>
      </g>
     </g>
    </g>
    <g id="ytick_12">
     <g id="line2d_48">
      <path d="M 57.44 237.880519 
L 277.2 237.880519 
" clip-path="url(#pcd3c988bd4)" style="fill: none; stroke: #b0b0b0; stroke-width: 0.8; stroke-linecap: square"/>
     </g>
     <g id="line2d_49">
      <g>
       <use xlink:href="#mdc6d310f6b" x="57.44" y="237.880519" style="stroke: #000000; stroke-width: 0.8"/>
      </g>
     </g>
     <g id="text_21">
      <!-- 2.0 -->
      <g transform="translate(34.536875 241.679738) scale(0.1 -0.1)">
       <use xlink:href="#DejaVuSans-32"/>
       <use xlink:href="#DejaVuSans-2e" transform="translate(63.623047 0)"/>
       <use xlink:href="#DejaVuSans-30" transform="translate(95.410156 0)"/>
      </g>
     </g>
    </g>
    <g id="text_22">
     <!-- Radial orbitals $ u(r) = r \cdot R(r) $ -->
     <g transform="translate(20.0775 369.063) rotate(-90) scale(0.1 -0.1)">
      <defs>
       <path id="DejaVuSans-Oblique-75" d="M 428 1388 
L 838 3500 
L 1416 3500 
L 1006 1409 
Q 975 1256 961 1147 
Q 947 1038 947 966 
Q 947 700 1109 554 
Q 1272 409 1569 409 
Q 2031 409 2368 721 
Q 2706 1034 2809 1563 
L 3194 3500 
L 3769 3500 
L 3091 0 
L 2516 0 
L 2631 550 
Q 2388 244 2052 76 
Q 1716 -91 1338 -91 
Q 878 -91 622 161 
Q 366 413 366 863 
Q 366 956 381 1097 
Q 397 1238 428 1388 
z
" transform="scale(0.015625)"/>
       <path id="DejaVuSans-22c5" d="M 684 2619 
L 1344 2619 
L 1344 1825 
L 684 1825 
L 684 2619 
z
" transform="scale(0.015625)"/>
       <path id="DejaVuSans-Oblique-52" d="M 1613 4147 
L 1294 2491 
L 2106 2491 
Q 2584 2491 2879 2755 
Q 3175 3019 3175 3444 
Q 3175 3784 2976 3965 
Q 2778 4147 2406 4147 
L 1613 4147 
z
M 2772 2241 
Q 2972 2194 3105 2009 
Q 3238 1825 3413 1275 
L 3809 0 
L 3144 0 
L 2778 1197 
Q 2638 1659 2453 1815 
Q 2269 1972 1888 1972 
L 1191 1972 
L 806 0 
L 172 0 
L 1081 4666 
L 2503 4666 
Q 3150 4666 3495 4373 
Q 3841 4081 3841 3531 
Q 3841 3044 3547 2687 
Q 3253 2331 2772 2241 
z
" transform="scale(0.015625)"/>
      </defs>
      <use xlink:href="#DejaVuSans-52" transform="translate(0 0.015625)"/>
      <use xlink:href="#DejaVuSans-61" transform="translate(69.482422 0.015625)"/>
      <use xlink:href="#DejaVuSans-64" transform="translate(130.761719 0.015625)"/>
      <use xlink:href="#DejaVuSans-69" transform="translate(194.238281 0.015625)"/>
      <use xlink:href="#DejaVuSans-61" transform="translate(222.021484 0.015625)"/>
      <use xlink:href="#DejaVuSans-6c" transform="translate(283.300781 0.015625)"/>
      <use xlink:href="#DejaVuSans-20" transform="translate(311.083984 0.015625)"/>
      <use xlink:href="#DejaVuSans-6f" transform="translate(342.871094 0.015625)"/>
      <use xlink:href="#DejaVuSans-72" transform="translate(404.052734 0.015625)"/>
      <use xlink:href="#DejaVuSans-62" transform="translate(445.166016 0.015625)"/>
      <use xlink:href="#DejaVuSans-69" transform="translate(508.642578 0.015625)"/>
      <use xlink:href="#DejaVuSans-74" transform="translate(536.425781 0.015625)"/>
      <use xlink:href="#DejaVuSans-61" transform="translate(575.634766 0.015625)"/>
      <use xlink:href="#DejaVuSans-6c" transform="translate(636.914062 0.015625)"/>
      <use xlink:href="#DejaVuSans-73" transform="translate(664.697266 0.015625)"/>
      <use xlink:href="#DejaVuSans-20" transform="translate(716.796875 0.015625)"/>
      <use xlink:href="#DejaVuSans-Oblique-75" transform="translate(748.583984 0.015625)"/>
      <use xlink:href="#DejaVuSans-28" transform="translate(811.962891 0.015625)"/>
      <use xlink:href="#DejaVuSans-Oblique-72" transform="translate(850.976562 0.015625)"/>
      <use xlink:href="#DejaVuSans-29" transform="translate(892.089844 0.015625)"/>
      <use xlink:href="#DejaVuSans-3d" transform="translate(950.585938 0.015625)"/>
      <use xlink:href="#DejaVuSans-Oblique-72" transform="translate(1053.857422 0.015625)"/>
      <use xlink:href="#DejaVuSans-22c5" transform="translate(1114.453125 0.015625)"/>
      <use xlink:href="#DejaVuSans-Oblique-52" transform="translate(1165.722656 0.015625)"/>
      <use xlink:href="#DejaVuSans-28" transform="translate(1235.205078 0.015625)"/>
      <use xlink:href="#DejaVuSans-Oblique-72" transform="translate(1274.21875 0.015625)"/>
      <use xlink:href="#DejaVuSans-29" transform="translate(1315.332031 0.015625)"/>
     </g>
    </g>
   </g>
   <g id="line2d_50">
    <path d="M 61.67038 352.264742 
L 62.384706 302.855695 
L 63.066596 270.002268 
L 63.708625 248.930628 
L 64.309057 235.948224 
L 64.843232 228.692896 
L 65.313592 224.9786 
L 65.702223 223.453974 
L 65.970825 223.089904 
L 66.152864 223.12472 
L 66.364172 223.422171 
L 66.676826 224.314637 
L 67.109576 226.3103 
L 67.717352 230.291239 
L 68.581322 237.600242 
L 70.017339 251.958368 
L 73.138604 283.372464 
L 74.716405 296.877457 
L 76.173508 307.503138 
L 77.572175 316.081809 
L 78.866568 322.728121 
L 80.180893 328.352115 
L 81.504141 333.0228 
L 82.824365 336.839379 
L 84.128837 339.915253 
L 85.404236 342.365707 
L 86.752052 344.461045 
L 88.054671 346.090043 
L 89.424931 347.462371 
L 90.866344 348.602142 
L 92.382604 349.534828 
L 94.126641 350.346563 
L 96.127934 351.020895 
L 98.421376 351.552881 
L 101.22993 351.970095 
L 104.845138 352.275956 
L 110.110055 352.481316 
L 119.367836 352.58668 
L 150.599211 352.610726 
L 277.84145 352.610806 
L 277.84145 352.610806 
" clip-path="url(#pcd3c988bd4)" style="fill: none; stroke: #d62728; stroke-width: 1.5; stroke-linecap: square"/>
   </g>
   <g id="line2d_51">
    <path d="M 61.67038 352.69322 
L 62.378123 364.33539 
L 63.034739 371.761591 
L 63.634795 376.228898 
L 64.155576 378.620101 
L 64.590656 379.724754 
L 64.947247 380.106885 
L 65.230621 380.113456 
L 65.520688 379.875814 
L 65.892308 379.248686 
L 66.385842 377.929572 
L 67.034939 375.498742 
L 67.915464 371.242758 
L 69.144061 364.098574 
L 71.613276 348.084371 
L 74.129429 332.368244 
L 75.908894 322.598088 
L 77.499142 315.048598 
L 78.945909 309.188807 
L 80.352093 304.395986 
L 81.687577 300.626791 
L 82.921962 297.775381 
L 84.128837 295.529178 
L 85.295242 293.824063 
L 86.408088 292.585546 
L 87.454391 291.734858 
L 88.54494 291.140682 
L 89.552974 290.830875 
L 90.598812 290.727516 
L 91.683872 290.829828 
L 92.953281 291.18771 
L 94.276371 291.796938 
L 95.812196 292.758398 
L 97.585276 294.144545 
L 99.624714 296.021124 
L 102.337612 298.845178 
L 106.258784 303.298331 
L 116.26764 314.808639 
L 120.439869 319.205426 
L 124.351278 323.002598 
L 127.910452 326.167365 
L 131.67171 329.210349 
L 135.306845 331.865892 
L 139.130739 334.372637 
L 142.779043 336.50886 
L 146.59917 338.499845 
L 150.599211 340.339394 
L 154.78764 342.02405 
L 159.173329 343.552975 
L 163.765568 344.927772 
L 169.06722 346.266654 
L 174.644168 347.431521 
L 180.510706 348.432583 
L 187.258534 349.35209 
L 195.001708 350.164881 
L 203.87523 350.853539 
L 214.038912 351.410003 
L 226.438633 351.857978 
L 242.324499 352.198118 
L 264.352604 352.432218 
L 277.84145 352.504056 
L 277.84145 352.504056 
" clip-path="url(#pcd3c988bd4)" style="fill: none; stroke-dasharray: 5.55,2.4; stroke-dashoffset: 0; stroke: #d62728; stroke-width: 1.5"/>
   </g>
   <g id="line2d_52">
    <path d="M 61.67038 352.610781 
L 62.023148 352.498026 
L 62.432526 352.115349 
L 62.949342 351.302385 
L 63.625756 349.785857 
L 64.52413 347.176386 
L 65.796172 342.73173 
L 68.392988 332.632967 
L 70.90715 323.250362 
L 72.774911 317.126358 
L 74.41954 312.471623 
L 75.974591 308.728982 
L 77.426445 305.799869 
L 78.787592 303.524505 
L 80.095882 301.738291 
L 81.413054 300.305772 
L 82.727216 299.210074 
L 84.025699 298.422926 
L 85.295242 297.907846 
L 86.636869 297.606604 
L 88.054671 297.52691 
L 89.552974 297.67351 
L 91.136349 298.048025 
L 92.953281 298.70905 
L 95.035449 299.710779 
L 97.585276 301.206931 
L 100.687454 303.304403 
L 105.04431 306.543817 
L 119.901386 317.793709 
L 125.22273 321.436664 
L 130.079239 324.504307 
L 134.968721 327.338586 
L 139.84703 329.917433 
L 145.049991 332.406819 
L 150.190873 334.619008 
L 155.648706 336.71967 
L 161.443032 338.695746 
L 167.108224 340.400048 
L 173.095077 341.982807 
L 179.421856 343.439631 
L 186.681873 344.872997 
L 194.389494 346.155327 
L 202.572314 347.288807 
L 211.949662 348.34841 
L 221.951076 349.24952 
L 233.406639 350.051917 
L 246.529736 350.739904 
L 261.573482 351.305033 
L 277.84145 351.726172 
L 277.84145 351.726172 
" clip-path="url(#pcd3c988bd4)" style="fill: none; stroke-dasharray: 9.6,2.4,1.5,2.4; stroke-dashoffset: 0; stroke: #d62728; stroke-width: 1.5"/>
   </g>
   <g id="line2d_53">
    <path d="M 61.67038 352.262555 
L 62.384706 302.596471 
L 63.066596 269.565982 
L 63.708625 248.376572 
L 64.309057 235.327412 
L 64.843232 228.047868 
L 65.313592 224.338174 
L 65.683692 222.877448 
L 65.95106 222.4995 
L 66.132263 222.528201 
L 66.342601 222.821782 
L 66.65382 223.714585 
L 67.084582 225.721717 
L 67.689568 229.737388 
L 68.549571 237.124497 
L 69.978994 251.655297 
L 73.085927 283.451784 
L 74.656484 297.097059 
L 76.106897 307.808732 
L 77.499142 316.432007 
L 78.787592 323.090891 
L 80.095882 328.705062 
L 81.322386 333.058367 
L 82.534256 336.620283 
L 83.820841 339.72181 
L 85.078753 342.188266 
L 86.408088 344.293524 
L 87.692847 345.927538 
L 89.044318 347.302234 
L 90.465967 348.442916 
L 91.961437 349.37615 
L 93.681561 350.189146 
L 95.655414 350.866625 
L 97.917409 351.404811 
L 100.687454 351.832925 
L 104.449533 352.169021 
L 109.666213 352.394743 
L 118.839175 352.534327 
L 142.035889 352.594654 
L 277.84145 352.610575 
L 277.84145 352.610575 
" clip-path="url(#pcd3c988bd4)" style="fill: none; stroke: #333333; stroke-width: 1.5; stroke-linecap: square"/>
   </g>
   <g id="line2d_54">
    <path d="M 61.67038 352.692591 
L 62.378123 364.232515 
L 63.034739 371.596894 
L 63.634795 376.032236 
L 64.155576 378.410072 
L 64.590656 379.510912 
L 64.947247 379.89347 
L 65.230621 379.902019 
L 65.520688 379.667474 
L 65.892308 379.045355 
L 66.385842 377.733759 
L 67.034939 375.312676 
L 67.915464 371.066917 
L 69.144061 363.927107 
L 71.522141 348.478347 
L 74.129429 332.08723 
L 75.908894 322.251503 
L 77.499142 314.644024 
L 78.945909 308.735708 
L 80.352093 303.901625 
L 81.687577 300.099785 
L 82.921962 297.224513 
L 84.128837 294.961205 
L 85.295242 293.245585 
L 86.408088 292.002608 
L 87.454391 291.152624 
L 88.54494 290.564103 
L 89.552974 290.263811 
L 90.598812 290.174451 
L 91.683872 290.29544 
L 92.953281 290.680086 
L 94.276371 291.322249 
L 95.812196 292.327495 
L 97.585276 293.770282 
L 99.624714 295.718126 
L 102.337612 298.64355 
L 106.258784 303.248516 
L 116.016936 314.838047 
L 120.170008 319.3616 
L 124.063457 323.265936 
L 127.606289 326.516312 
L 131.030321 329.382073 
L 134.632151 332.111746 
L 138.068588 334.456329 
L 141.666869 336.656359 
L 145.434617 338.70137 
L 149.379812 340.584099 
L 153.510811 342.300485 
L 157.836366 343.849587 
L 162.365639 345.23341 
L 167.108224 346.456658 
L 172.583448 347.625274 
L 178.342981 348.620359 
L 184.967728 349.524909 
L 192.569666 350.315008 
L 201.281335 350.975742 
L 211.259631 351.502437 
L 223.433182 351.920775 
L 239.847414 352.246258 
L 263.421963 352.464926 
L 277.84145 352.52757 
L 277.84145 352.52757 
" clip-path="url(#pcd3c988bd4)" style="fill: none; stroke-dasharray: 5.55,2.4; stroke-dashoffset: 0; stroke: #333333; stroke-width: 1.5"/>
   </g>
   <g id="line2d_55">
    <path d="M 61.67038 352.61079 
L 62.031458 352.49708 
L 62.450365 352.111311 
L 62.979211 351.292048 
L 63.662163 349.787605 
L 64.563861 347.221647 
L 65.834361 342.879077 
L 68.331357 333.365244 
L 70.992599 323.559976 
L 72.877631 317.432345 
L 74.537467 312.746352 
L 76.106897 308.953871 
L 77.572175 305.963938 
L 79.025615 303.49931 
L 80.352093 301.658092 
L 81.687577 300.168403 
L 83.020008 299.01594 
L 84.336542 298.174868 
L 85.623735 297.610731 
L 86.984013 297.262999 
L 88.421526 297.14139 
L 89.940658 297.252734 
L 91.546045 297.600697 
L 93.388236 298.244959 
L 95.499351 299.244845 
L 97.917409 300.655703 
L 100.867448 302.652581 
L 104.845138 305.642174 
L 113.334011 312.401035 
L 120.170008 317.680611 
L 125.515898 321.530699 
L 130.394808 324.784902 
L 135.306845 327.797027 
L 140.207655 330.537597 
L 145.049991 332.992882 
L 150.190873 335.337819 
L 155.217183 337.386161 
L 160.528879 339.30826 
L 166.142166 341.092622 
L 172.074168 342.730865 
L 178.342981 344.21797 
L 184.967728 345.552358 
L 191.968619 346.735767 
L 200.002184 347.853001 
L 208.531045 348.808086 
L 218.304949 349.669243 
L 229.499923 350.418698 
L 242.324499 351.045952 
L 257.92717 351.573341 
L 276.848875 351.982236 
L 277.84145 351.998609 
L 277.84145 351.998609 
" clip-path="url(#pcd3c988bd4)" style="fill: none; stroke-dasharray: 9.6,2.4,1.5,2.4; stroke-dashoffset: 0; stroke: #333333; stroke-width: 1.5"/>
   </g>
   <g id="patch_8">
    <path d="M 57.44 388.024 
L 57.44 214.602 
" style="fill: none; stroke: #000000; stroke-width: 0.8; stroke-linejoin: miter; stroke-linecap: square"/>
   </g>
   <g id="patch_9">
    <path d="M 277.2 388.024 
L 277.2 214.602 
" style="fill: none; stroke: #000000; stroke-width: 0.8; stroke-linejoin: miter; stroke-linecap: square"/>
   </g>
   <g id="patch_10">
    <path d="M 57.44 388.024 
L 277.2 388.024 
" style="fill: none; stroke: #000000; stroke-width: 0.8; stroke-linejoin: miter; stroke-linecap: square"/>
   </g>
   <g id="patch_11">
    <path d="M 57.44 214.602 
L 277.2 214.602 
" style="fill: none; stroke: #000000; stroke-width: 0.8; stroke-linejoin: miter; stroke-linecap: square"/>
   </g>
   <g id="legend_1">
    <g id="patch_12">
     <path d="M 174.570312 310.67075 
L 270.2 310.67075 
Q 272.2 310.67075 272.2 308.67075 
L 272.2 221.602 
Q 272.2 219.602 270.2 219.602 
L 174.570312 219.602 
Q 172.570312 219.602 172.570312 221.602 
L 172.570312 308.67075 
Q 172.570312 310.67075 174.570312 310.67075 
z
" style="fill: #ffffff; opacity: 0.8; stroke: #cccccc; stroke-linejoin: miter"/>
    </g>
    <g id="line2d_56">
     <path d="M 176.570312 227.700437 
L 186.570312 227.700437 
L 196.570312 227.700437 
" style="fill: none; stroke: #d62728; stroke-width: 1.5; stroke-linecap: square"/>
    </g>
    <g id="text_23">
     <!-- orbital 1s -->
     <g transform="translate(204.570312 231.200437) scale(0.1 -0.1)">
      <use xlink:href="#DejaVuSans-6f"/>
      <use xlink:href="#DejaVuSans-72" transform="translate(61.181641 0)"/>
      <use xlink:href="#DejaVuSans-62" transform="translate(102.294922 0)"/>
      <use xlink:href="#DejaVuSans-69" transform="translate(165.771484 0)"/>
      <use xlink:href="#DejaVuSans-74" transform="translate(193.554688 0)"/>
      <use xlink:href="#DejaVuSans-61" transform="translate(232.763672 0)"/>
      <use xlink:href="#DejaVuSans-6c" transform="translate(294.042969 0)"/>
      <use xlink:href="#DejaVuSans-20" transform="translate(321.826172 0)"/>
      <use xlink:href="#DejaVuSans-31" transform="translate(353.613281 0)"/>
      <use xlink:href="#DejaVuSans-73" transform="translate(417.236328 0)"/>
     </g>
    </g>
    <g id="line2d_57">
     <path d="M 176.570312 242.378562 
L 186.570312 242.378562 
L 196.570312 242.378562 
" style="fill: none; stroke-dasharray: 5.55,2.4; stroke-dashoffset: 0; stroke: #d62728; stroke-width: 1.5"/>
    </g>
    <g id="text_24">
     <!-- orbital 2s -->
     <g transform="translate(204.570312 245.878562) scale(0.1 -0.1)">
      <use xlink:href="#DejaVuSans-6f"/>
      <use xlink:href="#DejaVuSans-72" transform="translate(61.181641 0)"/>
      <use xlink:href="#DejaVuSans-62" transform="translate(102.294922 0)"/>
      <use xlink:href="#DejaVuSans-69" transform="translate(165.771484 0)"/>
      <use xlink:href="#DejaVuSans-74" transform="translate(193.554688 0)"/>
      <use xlink:href="#DejaVuSans-61" transform="translate(232.763672 0)"/>
      <use xlink:href="#DejaVuSans-6c" transform="translate(294.042969 0)"/>
      <use xlink:href="#DejaVuSans-20" transform="translate(321.826172 0)"/>
      <use xlink:href="#DejaVuSans-32" transform="translate(353.613281 0)"/>
      <use xlink:href="#DejaVuSans-73" transform="translate(417.236328 0)"/>
     </g>
    </g>
    <g id="line2d_58">
     <path d="M 176.570312 257.056687 
L 186.570312 257.056687 
L 196.570312 257.056687 
" style="fill: none; stroke-dasharray: 9.6,2.4,1.5,2.4; stroke-dashoffset: 0; stroke: #d62728; stroke-width: 1.5"/>
    </g>
    <g id="text_25">
     <!-- orbital 2p -->
     <g transform="translate(204.570312 260.556687) scale(0.1 -0.1)">
      <defs>
       <path id="DejaVuSans-70" d="M 1159 525 
L 1159 -1331 
L 581 -1331 
L 581 3500 
L 1159 3500 
L 1159 2969 
Q 1341 3281 1617 3432 
Q 1894 3584 2278 3584 
Q 2916 3584 3314 3078 
Q 3713 2572 3713 1747 
Q 3713 922 3314 415 
Q 2916 -91 2278 -91 
Q 1894 -91 1617 61 
Q 1341 213 1159 525 
z
M 3116 1747 
Q 3116 2381 2855 2742 
Q 2594 3103 2138 3103 
Q 1681 3103 1420 2742 
Q 1159 2381 1159 1747 
Q 1159 1113 1420 752 
Q 1681 391 2138 391 
Q 2594 391 2855 752 
Q 3116 1113 3116 1747 
z
" transform="scale(0.015625)"/>
      </defs>
      <use xlink:href="#DejaVuSans-6f"/>
      <use xlink:href="#DejaVuSans-72" transform="translate(61.181641 0)"/>
      <use xlink:href="#DejaVuSans-62" transform="translate(102.294922 0)"/>
      <use xlink:href="#DejaVuSans-69" transform="translate(165.771484 0)"/>
      <use xlink:href="#DejaVuSans-74" transform="translate(193.554688 0)"/>
      <use xlink:href="#DejaVuSans-61" transform="translate(232.763672 0)"/>
      <use xlink:href="#DejaVuSans-6c" transform="translate(294.042969 0)"/>
      <use xlink:href="#DejaVuSans-20" transform="translate(321.826172 0)"/>
      <use xlink:href="#DejaVuSans-32" transform="translate(353.613281 0)"/>
      <use xlink:href="#DejaVuSans-70" transform="translate(417.236328 0)"/>
     </g>
    </g>
    <g id="line2d_59">
     <path d="M 176.570312 271.734812 
L 186.570312 271.734812 
L 196.570312 271.734812 
" style="fill: none; stroke: #333333; stroke-width: 1.5; stroke-linecap: square"/>
    </g>
    <g id="text_26">
     <!-- reference 1s -->
     <g transform="translate(204.570312 275.234812) scale(0.1 -0.1)">
      <use xlink:href="#DejaVuSans-72"/>
      <use xlink:href="#DejaVuSans-65" transform="translate(38.863281 0)"/>
      <use xlink:href="#DejaVuSans-66" transform="translate(100.386719 0)"/>
      <use xlink:href="#DejaVuSans-65" transform="translate(135.591797 0)"/>
      <use xlink:href="#DejaVuSans-72" transform="translate(197.115234 0)"/>
      <use xlink:href="#DejaVuSans-65" transform="translate(235.978516 0)"/>
      <use xlink:href="#DejaVuSans-6e" transform="translate(297.501953 0)"/>
      <use xlink:href="#DejaVuSans-63" transform="translate(360.880859 0)"/>
      <use xlink:href="#DejaVuSans-65" transform="translate(415.861328 0)"/>
      <use xlink:href="#DejaVuSans-20" transform="translate(477.384766 0)"/>
      <use xlink:href="#DejaVuSans-31" transform="translate(509.171875 0)"/>
      <use xlink:href="#DejaVuSans-73" transform="translate(572.794922 0)"/>
     </g>
    </g>
    <g id="line2d_60">
     <path d="M 176.570312 286.412937 
L 186.570312 286.412937 
L 196.570312 286.412937 
" style="fill: none; stroke-dasharray: 5.55,2.4; stroke-dashoffset: 0; stroke: #333333; stroke-width: 1.5"/>
    </g>
    <g id="text_27">
     <!-- reference 2s -->
     <g transform="translate(204.570312 289.912937) scale(0.1 -0.1)">
      <use xlink:href="#DejaVuSans-72"/>
      <use xlink:href="#DejaVuSans-65" transform="translate(38.863281 0)"/>
      <use xlink:href="#DejaVuSans-66" transform="translate(100.386719 0)"/>
      <use xlink:href="#DejaVuSans-65" transform="translate(135.591797 0)"/>
      <use xlink:href="#DejaVuSans-72" transform="translate(197.115234 0)"/>
      <use xlink:href="#DejaVuSans-65" transform="translate(235.978516 0)"/>
      <use xlink:href="#DejaVuSans-6e" transform="translate(297.501953 0)"/>
      <use xlink:href="#DejaVuSans-63" transform="translate(360.880859 0)"/>
      <use xlink:href="#DejaVuSans-65" transform="translate(415.861328 0)"/>
      <use xlink:href="#DejaVuSans-20" transform="translate(477.384766 0)"/>
      <use xlink:href="#DejaVuSans-32" transform="translate(509.171875 0)"/>
      <use xlink:href="#DejaVuSans-73" transform="translate(572.794922 0)"/>
     </g>
    </g>
    <g id="line2d_61">
     <path d="M 176.570312 301.091062 
L 186.570312 301.091062 
L 196.570312 301.091062 
" style="fill: none; stroke-dasharray: 9.6,2.4,1.5,2.4; stroke-dashoffset: 0; stroke: #333333; stroke-width: 1.5"/>
    </g>
    <g id="text_28">
     <!-- reference 2p -->
     <g transform="translate(204.570312 304.591062) scale(0.1 -0.1)">
      <use xlink:href="#DejaVuSans-72"/>
      <use xlink:href="#DejaVuSans-65" transform="translate(38.863281 0)"/>
      <use xlink:href="#DejaVuSans-66" transform="translate(100.386719 0)"/>
      <use xlink:href="#DejaVuSans-65" transform="translate(135.591797 0)"/>
      <use xlink:href="#DejaVuSans-72" transform="translate(197.115234 0)"/>
      <use xlink:href="#DejaVuSans-65" transform="translate(235.978516 0)"/>
      <use xlink:href="#DejaVuSans-6e" transform="translate(297.501953 0)"/>
      <use xlink:href="#DejaVuSans-63" transform="translate(360.880859 0)"/>
      <use xlink:href="#DejaVuSans-65" transform="translate(415.861328 0)"/>
      <use xlink:href="#DejaVuSans-20" transform="translate(477.384766 0)"/>
      <use xlink:href="#DejaVuSans-32" transform="translate(509.171875 0)"/>
      <use xlink:href="#DejaVuSans-70" transform="translate(572.794922 0)"/>
     </g>
    </g>
   </g>
  </g>
 </g>
 <defs>
  <clipPath id="p51d6ce5797">
   <rect x="57.44" y="26.88" width="219.76" height="173.422"/>
  </clipPath>
  <clipPath id="pcd3c988bd4">
   <rect x="57.44" y="214.602" width="219.76" height="173.422"/>
  </clipPath>
 </defs>
</svg>
